<svg xmlns="http://www.w3.org/2000/svg" width="50" height="50" viewBox="0 0 50 50">
  <defs>
    <linearGradient id="a" x1="10.707%" x2="82.694%" y1="80.166%" y2="0%">
      <stop stop-color="#512da8" offset="0%"/>
      <stop stop-color="#8559da" offset="100%"/>
    </linearGradient>
  </defs>
  <g fill="none" fill-rule="evenodd">
    <polygon fill="#8559da" points="18 38 32 38 33 43 17 43"/>
    <path fill="#512da8" d="M17.0002253 43L33.0002253 43 33.7581532 46.0317116C33.8918459 46.5664825 33.555279 47 33.0068276 47L16.993623 47C16.4449846 47 16.1072428 46.5719299 16.2422974 46.0317116L17.0002253 43zM50 35.0007894C50 36.6572077 48.6623438 38 46.9985181 38L3.0014819 38C1.34380922 38 0 36.6494043 0 35.0007894L.10542736e-15 5.99921059C.10542736e-15 4.34279232 1.3376562 3 3.0014819 3L46.9985181 3C48.6561908 3 50 4.35059566 50 5.99921059L50 35.0007894z"/>
    <path fill="url(#a)" d="M46,38 L3.0014819,38 C1.34380922,38 0,36.6494043 0,35.0007894 L0,7.26636687 C0.293187599,7.09693479 0.633539145,7 0.996851602,7 L44.0031484,7 C45.1059791,7 46,7.88784587 46,9.00113884 L46,38 Z"/>
  </g>
</svg>
