<?xml version="1.0"?>
<svg xmlns="http://www.w3.org/2000/svg" xmlns:xlink="http://www.w3.org/1999/xlink" version="1.1" id="Layer_1" x="0px" y="0px" viewBox="0 0 512 512" style="enable-background:new 0 0 512 512;" xml:space="preserve" width="512px" height="512px" class=""><g><path style="fill:#512DA8" d="M512,218.251v191.786c0,23.57-19.174,42.744-42.744,42.744H137.587  c-23.57,0-42.744-19.174-42.744-42.744v-73.544H42.744C19.174,336.493,0,317.319,0,293.749V101.963  c0-23.57,19.174-42.744,42.744-42.744h331.669c23.57,0,42.744,19.174,42.744,42.744v73.544h52.099  C492.826,175.507,512,194.681,512,218.251z M487.575,410.037V218.251c0-10.1-8.219-18.319-18.319-18.319h-62.98  c-0.44,0.049-0.879,0.073-1.331,0.073H136.097c-9.404,0.769-16.829,8.646-16.829,18.246v191.786c0,10.1,8.219,18.319,18.319,18.319  h331.669C479.356,428.356,487.575,420.137,487.575,410.037z M392.732,175.507v-32.07H24.425v32.143h110.707  c0.818-0.049,1.636-0.073,2.455-0.073H392.732z M392.732,119.012v-17.049c0-10.1-8.219-18.319-18.319-18.319H42.744  c-10.1,0-18.319,8.219-18.319,18.319v17.049H392.732z M98.946,200.005H24.425v93.744c0,10.1,8.219,18.319,18.319,18.319h52.099  v-93.817C94.843,211.729,96.321,205.538,98.946,200.005z" data-original="#1E0478" class="active-path" data-old_color="#512da8"/><path style="fill:#FFFFFF;" d="M487.575,218.251v191.786c0,10.1-8.219,18.319-18.319,18.319H137.587  c-10.1,0-18.319-8.219-18.319-18.319V218.251c0-9.599,7.425-17.476,16.829-18.246h268.848c0.452,0,0.892-0.024,1.331-0.073h62.98  C479.356,199.932,487.575,208.151,487.575,218.251z M399.083,314.144c0-32.461-26.404-58.877-58.865-58.877  c-13.898,0-26.672,4.848-36.748,12.933c-10.332-8.329-23.216-12.933-36.833-12.933c-32.461,0-58.877,26.416-58.877,58.877  s26.416,58.877,58.877,58.877c13.617,0,26.501-4.604,36.833-12.933c10.075,8.085,22.85,12.933,36.748,12.933  C372.679,373.021,399.083,346.605,399.083,314.144z" data-original="#FFFFFF" class=""/><path style="fill:#FFFFFF" d="M392.732,143.437v32.07H137.587c-0.818,0-1.636,0.024-2.455,0.073H24.425v-32.144  C24.425,143.437,392.732,143.437,392.732,143.437z" data-original="#94E7EF" class="" data-old_color="#ffffff"/><path style="fill:#8559DA" d="M392.732,101.963v17.049H24.425v-17.049c0-10.1,8.219-18.319,18.319-18.319h331.669  C384.513,83.644,392.732,91.863,392.732,101.963z" data-original="#9B8CCC" class="" data-old_color="#8559da"/><path style="fill:#512DA8" d="M340.218,255.267c32.461,0,58.865,26.416,58.865,58.877s-26.404,58.877-58.865,58.877  c-13.898,0-26.672-4.848-36.748-12.933c-10.332,8.329-23.216,12.933-36.833,12.933c-32.461,0-58.877-26.416-58.877-58.877  s26.416-58.877,58.877-58.877c13.617,0,26.501,4.604,36.833,12.933C313.546,260.116,326.32,255.267,340.218,255.267z   M374.657,314.144c0-18.991-15.449-34.452-34.439-34.452c-19.003,0-34.452,15.461-34.452,34.452s15.449,34.452,34.452,34.452  C359.208,348.596,374.657,333.135,374.657,314.144z M281.341,314.144c0-9.758,2.394-18.954,6.619-27.063  c-6.021-4.751-13.458-7.389-21.323-7.389c-19.003,0-34.452,15.449-34.452,34.452c0,18.991,15.449,34.452,34.452,34.452  c7.865,0,15.302-2.638,21.323-7.389C283.735,333.098,281.341,323.902,281.341,314.144z" data-original="#1E0478" class="active-path" data-old_color="#512da8"/><path style="fill:#8559DA" d="M340.218,279.692c18.991,0,34.439,15.461,34.439,34.452c0,18.991-15.449,34.452-34.439,34.452  c-19.003,0-34.452-15.461-34.452-34.452C305.766,295.154,321.215,279.692,340.218,279.692z" data-original="#9B8CCC" class="" data-old_color="#8559da"/><path style="fill:#FFFFFF" d="M287.96,287.081c-4.226,8.109-6.619,17.305-6.619,27.063c0,9.758,2.394,18.954,6.619,27.063  c-6.021,4.751-13.458,7.389-21.323,7.389c-19.003,0-34.452-15.461-34.452-34.452c0-19.003,15.449-34.452,34.452-34.452  C274.502,279.692,281.94,282.33,287.96,287.081z" data-original="#94E7EF" class="" data-old_color="#ffffff"/><path style="fill:#8559DA" d="M24.425,200.005h74.521c-2.626,5.532-4.103,11.724-4.103,18.246v93.817H42.744  c-10.1,0-18.319-8.219-18.319-18.319V200.005z" data-original="#9B8CCC" class="" data-old_color="#8559da"/></g> </svg>
