<svg xmlns="http://www.w3.org/2000/svg" xmlns:xlink="http://www.w3.org/1999/xlink" version="1.1" id="Layer_1" x="0px" y="0px" viewBox="0 0 512 512" style="enable-background:new 0 0 512 512;" xml:space="preserve" width="50" height="50" class=""><g><g>
	<path style="fill:#512DA8" d="M499.246,166.15c6.849,0,12.386,5.549,12.386,12.386c0,6.849-5.536,12.386-12.386,12.386h-44.564   c-6.849,0-12.386-5.536-12.386-12.386c0-6.837,5.536-12.386,12.386-12.386H499.246z" data-original="#1E0478" class="" data-old_color="#512da8"></path>
	<path style="fill:#512DA8" d="M453.59,358.614c4.83,4.83,4.83,12.671,0,17.514c-2.428,2.415-5.598,3.629-8.757,3.629   c-3.171,0-6.342-1.214-8.769-3.629l-32.302-32.302c-4.83-4.83-4.83-12.683,0-17.514c4.843-4.843,12.683-4.843,17.526,0   L453.59,358.614z" data-original="#1E0478" class="" data-old_color="#512da8"></path>
	<path style="fill:#512DA8" d="M430.913,3.623c4.83,4.843,4.83,12.683,0,17.514l-31.534,31.534   c-2.415,2.415-5.586,3.629-8.757,3.629s-6.342-1.201-8.757-3.629c-4.843-4.83-4.843-12.671,0-17.514l31.534-31.534   C418.23-1.208,426.069-1.208,430.913,3.623z" data-original="#1E0478" class="" data-old_color="#512da8"></path>
	<path style="fill:#512DA8" d="M411.331,196.111c0,41.654-14.925,86.478-40.935,122.991   c-19.978,28.054-30.544,59.254-30.544,90.243v77.882c0,13.649-11.11,24.772-24.772,24.772H196.92   c-13.662,0-24.772-11.122-24.772-24.772v-77.882c0-30.989-10.565-62.189-30.544-90.243c-26.01-36.513-40.935-81.338-40.935-122.991   c0-89.587,69.683-162.478,155.331-162.478S411.331,106.524,411.331,196.111z M350.219,304.735   c22.753-31.943,36.34-72.544,36.34-108.624c0-75.925-58.573-137.706-130.559-137.706s-130.559,61.781-130.559,137.706   c0,36.08,13.587,76.681,36.34,108.624c22.121,31.051,34.21,65.732,35.077,100.548h27.695l-9.339-140.753l-23.843-50.918   c-1.784-3.827-1.499-8.323,0.768-11.89c2.279-3.58,6.218-5.747,10.454-5.747h106.816c4.236,0,8.175,2.168,10.454,5.747   c2.267,3.567,2.551,8.063,0.756,11.89l-23.83,50.918l-9.339,140.753h27.682C316.008,370.467,328.097,335.799,350.219,304.735z    M315.093,487.228l-0.012-57.173H196.92v16.201H256c6.837,0,12.386,5.536,12.386,12.386c0,6.837-5.549,12.386-12.386,12.386h-59.08   v16.201h118.161C315.093,487.228,315.093,487.228,315.093,487.228z M273.365,256.146l16.572-35.399h-67.874l16.572,35.399   c0.644,1.387,1.04,2.886,1.139,4.422l9.599,144.716h13.253l9.599-144.716C272.337,259.031,272.721,257.533,273.365,256.146z" data-original="#1E0478" class="" data-old_color="#512da8"></path>
</g><path style="fill:#ffffff" d="M386.559,196.111c0,36.08-13.587,76.681-36.34,108.624c-22.121,31.064-34.21,65.732-35.089,100.548  h-27.682l9.339-140.753l23.83-50.918c1.796-3.827,1.511-8.323-0.756-11.89c-2.279-3.58-6.218-5.747-10.454-5.747H202.592  c-4.236,0-8.175,2.168-10.454,5.747c-2.267,3.567-2.551,8.063-0.768,11.89l23.843,50.918l9.339,140.753h-27.695  c-0.867-34.817-12.956-69.497-35.077-100.548c-22.753-31.943-36.34-72.544-36.34-108.624c0-75.925,58.573-137.706,130.559-137.706  S386.559,120.186,386.559,196.111z" data-original="#94E7EF" class="" data-old_color="#8559da"></path><path style="fill:#FFFFFF" d="M315.079,430.055l0.012,57.173c0,0,0,0-0.012,0H196.918v-16.201h59.08  c6.837,0,12.386-5.549,12.386-12.386c0-6.849-5.549-12.386-12.386-12.386h-59.08v-16.201L315.079,430.055L315.079,430.055z" data-original="#9B8CCC" class="active-path" data-old_color="#ffffff"></path><path style="fill:#8559DA" d="M289.936,220.747l-16.572,35.399c-0.644,1.387-1.028,2.886-1.139,4.422l-9.599,144.716h-13.253  l-9.599-144.716c-0.099-1.536-0.495-3.035-1.139-4.422l-16.572-35.399L289.936,220.747L289.936,220.747z" data-original="#94E7EF" class="" data-old_color="#8559da"></path><g>
	<path style="fill:#512DA8" d="M130.123,35.145c4.83,4.83,4.83,12.683,0,17.514c-2.428,2.415-5.586,3.629-8.757,3.629   c-3.171,0-6.342-1.214-8.769-3.629l-31.51-31.51c-4.83-4.843-4.83-12.683,0-17.526c4.843-4.83,12.683-4.83,17.514,0L130.123,35.145   z" data-original="#1E0478" class="" data-old_color="#512da8"></path>
	<path style="fill:#512DA8" d="M108.348,326.188c4.843,4.843,4.843,12.683,0,17.514l-32.414,32.426   c-2.428,2.415-5.598,3.629-8.769,3.629c-3.158,0-6.329-1.214-8.757-3.629c-4.83-4.843-4.83-12.683,0-17.514l32.426-32.426   C95.665,321.357,103.517,321.357,108.348,326.188z" data-original="#1E0478" class="" data-old_color="#512da8"></path>
	<path style="fill:#512DA8" d="M57.319,166.15c6.837,0,12.386,5.549,12.386,12.386c0,6.849-5.549,12.386-12.386,12.386H12.754   c-6.849,0-12.386-5.536-12.386-12.386c0-6.837,5.536-12.386,12.386-12.386H57.319z" data-original="#1E0478" class="" data-old_color="#512da8"></path>
</g></g> </svg>
