<?xml version="1.0"?>
<svg xmlns="http://www.w3.org/2000/svg" xmlns:xlink="http://www.w3.org/1999/xlink" version="1.1" id="Layer_1" x="0px" y="0px" viewBox="0 0 512 512" style="enable-background:new 0 0 512 512;" xml:space="preserve" width="50" height="50" class=""><g><path style="fill:#512DA8" d="M512,121.655v268.689c0,6.075-4.93,11.006-11.006,11.006H11.006C4.93,401.35,0,396.42,0,390.345  V121.655c0-6.075,4.93-11.006,11.006-11.006h489.989C507.07,110.65,512,115.58,512,121.655z M489.989,379.339v-55.875  c-28.57,4.688-51.187,27.305-55.875,55.875H489.989z M489.989,301.244v-90.488c-40.732-5.008-73.088-37.364-78.095-78.095H100.106  c-5.008,40.732-37.364,73.088-78.095,78.095v90.488c40.732,5.008,73.088,37.364,78.095,78.095h311.787  C416.901,338.608,449.257,306.251,489.989,301.244z M489.989,188.536v-55.875h-55.875  C438.802,161.231,461.419,183.848,489.989,188.536z M77.886,132.661H22.011v55.875C50.581,183.848,73.198,161.231,77.886,132.661z   M22.011,379.339h55.875c-4.688-28.57-27.305-51.187-55.875-55.875C22.011,323.464,22.011,379.339,22.011,379.339z" data-original="#1E0478" class="" data-old_color="#512da8"/><path style="fill:#FFFFFF" d="M489.989,323.464v55.875h-55.875C438.802,350.769,461.419,328.152,489.989,323.464z" data-original="#9B8CCC" class="active-path" data-old_color="#ffffff"/><path style="fill:#8559DA" d="M489.989,210.756v90.488c-40.732,5.008-73.088,37.364-78.095,78.095H100.106  c-5.008-40.732-37.364-73.088-78.095-78.095v-90.488c40.732-5.008,73.088-37.364,78.095-78.095h311.787  C416.901,173.392,449.257,205.749,489.989,210.756z M407.117,293.496v-74.992c0-5.47-4.435-9.905-9.905-9.905  c-12.139,0-22.011-9.872-22.011-22.011c0-5.47-4.435-9.905-9.905-9.905H146.704c-5.47,0-9.905,4.435-9.905,9.905  c0,12.139-9.872,22.011-22.011,22.011c-5.47,0-9.905,4.435-9.905,9.905v74.992c0,5.47,4.435,9.905,9.905,9.905  c12.139,0,22.011,9.872,22.011,22.011c0,5.47,4.435,9.905,9.905,9.905h218.592c5.47,0,9.905-4.435,9.905-9.905  c0-12.139,9.872-22.011,22.011-22.011C402.682,303.401,407.117,298.966,407.117,293.496z" data-original="#94E7EF" class="" data-old_color="#8559da"/><path style="fill:#FFFFFF" d="M489.989,132.661v55.875c-28.57-4.688-51.187-27.305-55.875-55.875  C434.114,132.661,489.989,132.661,489.989,132.661z" data-original="#9B8CCC" class="active-path" data-old_color="#ffffff"/><path style="fill:#512DA8" d="M407.117,218.504v74.992c0,5.47-4.435,9.905-9.905,9.905c-12.139,0-22.011,9.872-22.011,22.011  c0,5.47-4.435,9.905-9.905,9.905H146.704c-5.47,0-9.905-4.435-9.905-9.905c0-12.139-9.872-22.011-22.011-22.011  c-5.47,0-9.905-4.435-9.905-9.905v-74.992c0-5.47,4.435-9.905,9.905-9.905c12.139,0,22.011-9.872,22.011-22.011  c0-5.47,4.435-9.905,9.905-9.905h218.592c5.47,0,9.905,4.435,9.905,9.905c0,12.139,9.872,22.011,22.011,22.011  C402.682,208.599,407.117,213.034,407.117,218.504z M387.307,284.768v-57.537c-15.122-3.687-27.052-15.617-30.738-30.738H155.431  c-3.687,15.122-15.617,27.052-30.738,30.738v57.537c15.122,3.687,27.052,15.617,30.738,30.738h201.137  C360.256,300.385,372.186,288.455,387.307,284.768z" data-original="#1E0478" class="" data-old_color="#512da8"/><path style="fill:#FFFFFF;" d="M387.307,227.232v57.537c-15.122,3.687-27.052,15.617-30.738,30.738H155.431  c-3.687-15.122-15.617-27.052-30.738-30.738v-57.537c15.122-3.687,27.052-15.617,30.738-30.738h201.137  C360.256,211.615,372.186,223.545,387.307,227.232z M317.719,291.592v-71.184c0-5.47-4.435-9.905-9.905-9.905h-45.541  c-5.47,0-9.905,4.435-9.905,9.905v71.184c0,5.47,4.435,9.905,9.905,9.905h45.541C313.284,301.497,317.719,297.062,317.719,291.592z   M228.398,291.592v-71.184c0-5.47-4.435-9.905-9.905-9.905h-14.868c-5.47,0-9.905,4.435-9.905,9.905s4.435,9.905,9.905,9.905h4.963  v61.279c0,5.47,4.435,9.905,9.905,9.905S228.398,297.062,228.398,291.592z" data-original="#FFFFFF"/><path style="fill:#512DA8" d="M317.719,220.408v71.184c0,5.47-4.435,9.905-9.905,9.905h-45.541c-5.47,0-9.905-4.435-9.905-9.905  v-71.184c0-5.47,4.435-9.905,9.905-9.905h45.541C313.284,210.503,317.719,214.938,317.719,220.408z M297.909,281.687v-51.374  h-25.731v51.374L297.909,281.687L297.909,281.687z" data-original="#1E0478" class="" data-old_color="#512da8"/><rect x="272.178" y="230.313" style="fill:#FFFFFF;" width="25.731" height="51.374" data-original="#FFFFFF"/><path style="fill:#512DA8" d="M228.398,220.408v71.184c0,5.47-4.435,9.905-9.905,9.905s-9.905-4.435-9.905-9.905v-61.279h-4.963  c-5.47,0-9.905-4.435-9.905-9.905s4.435-9.905,9.905-9.905h14.868C223.963,210.503,228.398,214.938,228.398,220.408z" data-original="#1E0478" class="" data-old_color="#512da8"/><g>
	<path style="fill:#FFFFFF" d="M22.011,132.661h55.875c-4.688,28.57-27.305,51.187-55.875,55.875V132.661z" data-original="#9B8CCC" class="active-path" data-old_color="#ffffff"/>
	<path style="fill:#FFFFFF" d="M77.886,379.339H22.011v-55.875C50.581,328.152,73.198,350.769,77.886,379.339z" data-original="#9B8CCC" class="active-path" data-old_color="#ffffff"/>
</g></g> </svg>
