<!-- Generated by IcoMoon.io -->
<svg version="1.1" xmlns="http://www.w3.org/2000/svg" width="50" height="50" viewBox="0 0 150 150">
<path fill="#8756D6" d="M150 62.879c0-29.433-8.612-53.311-19.26-53.5 0.043-0.001 0.085-0.004 0.128-0.004h-12.15c0 0-28.535 21.436-69.614 29.847-1.254 6.635-2.055 14.542-2.055 23.658s0.801 17.023 2.055 23.657c41.078 8.411 69.614 29.847 69.614 29.847h12.15c-0.043 0-0.085-0.004-0.128-0.005 10.649-0.189 19.26-24.067 19.26-53.5zM126.683 108.289c-1.374 0-2.861-1.427-3.625-2.278-1.85-2.060-3.632-5.268-5.154-9.277-3.407-8.97-5.283-20.993-5.283-33.856s1.876-24.886 5.283-33.856c1.523-4.009 3.305-7.217 5.154-9.277 0.764-0.851 2.251-2.278 3.625-2.278s2.862 1.427 3.625 2.278c1.851 2.060 3.632 5.267 5.154 9.277 3.407 8.969 5.283 20.993 5.283 33.856s-1.876 24.886-5.283 33.856c-1.522 4.009-3.305 7.216-5.154 9.277-0.763 0.85-2.25 2.278-3.625 2.278zM36.887 62.879c0-7.61 0.558-15.004 1.619-21.84-6.939 0.96-13.029 1.512-20.558 1.512-9.823 0-9.823 0-9.823 0l-8.125 13.87v12.916l8.124 13.87c0 0 0 0 9.823 0 7.529 0 13.618 0.553 20.558 1.512-1.060-6.836-1.618-14.23-1.618-21.84zM53.928 94.068l-18.75-3.59 11.989 47.101c0.621 2.437 3.039 3.668 5.374 2.733l17.367-6.951c2.336-0.934 3.271-3.51 2.079-5.725l-18.059-33.567zM126.683 80.38c-0.53 0-1.103-0.55-1.397-0.878-0.713-0.794-1.4-2.030-1.987-3.575-1.313-3.457-2.036-8.091-2.036-13.049s0.723-9.592 2.036-13.049c0.587-1.545 1.274-2.781 1.987-3.575 0.294-0.328 0.867-0.878 1.397-0.878s1.103 0.55 1.397 0.878c0.713 0.794 1.4 2.030 1.986 3.575 1.313 3.457 2.036 8.091 2.036 13.049s-0.723 9.592-2.036 13.049c-0.587 1.545-1.274 2.781-1.986 3.575-0.294 0.328-0.867 0.878-1.397 0.878z"></path>
</svg>
