<!-- Generated by IcoMoon.io -->
<svg version="1.1" xmlns="http://www.w3.org/2000/svg" width="50" height="50" viewBox="0 0 150 150">
<path fill="#8756D6" d="M56.25 9.375h-46.875c-5.156 0-9.375 4.219-9.375 9.375v46.875c0 5.156 4.218 9.375 9.375 9.375h46.875c5.156 0 9.375-4.219 9.375-9.375v-46.875c0-5.156-4.219-9.375-9.375-9.375zM56.25 46.875h-46.875v-9.375h46.875v9.375zM131.25 9.375h-46.875c-5.157 0-9.375 4.219-9.375 9.375v121.875c0 5.156 4.218 9.375 9.375 9.375h46.875c5.156 0 9.375-4.219 9.375-9.375v-121.875c0-5.156-4.219-9.375-9.375-9.375zM131.25 93.75h-46.875v-9.375h46.875v9.375zM131.25 65.625h-46.875v-9.375h46.875v9.375zM56.25 84.375h-46.875c-5.156 0-9.375 4.219-9.375 9.375v46.875c0 5.156 4.218 9.375 9.375 9.375h46.875c5.156 0 9.375-4.219 9.375-9.375v-46.875c0-5.156-4.219-9.375-9.375-9.375zM56.25 121.875h-18.75v18.75h-9.375v-18.75h-18.75v-9.375h18.75v-18.75h9.375v18.75h18.75v9.375z"></path>
</svg>
