<!-- Generated by IcoMoon.io -->
<svg version="1.1" xmlns="http://www.w3.org/2000/svg" width="50" height="50" viewBox="0 0 150 150">
<path fill="#8756D6" d="M46.875 56.25h18.75v18.75h-18.75zM75 56.25h18.75v18.75h-18.75zM103.125 56.25h18.75v18.75h-18.75zM18.75 112.5h18.75v18.75h-18.75zM46.875 112.5h18.75v18.75h-18.75zM75 112.5h18.75v18.75h-18.75zM46.875 84.375h18.75v18.75h-18.75zM75 84.375h18.75v18.75h-18.75zM103.125 84.375h18.75v18.75h-18.75zM18.75 84.375h18.75v18.75h-18.75zM121.875 0v9.375h-18.75v-9.375h-65.625v9.375h-18.75v-9.375h-18.75v150h140.625v-150h-18.75zM131.25 140.625h-121.875v-103.125h121.875v103.125z"></path>
</svg>
