<!-- Generated by IcoMoon.io -->
<svg version="1.1" xmlns="http://www.w3.org/2000/svg" width="50" height="50" viewBox="0 0 150 150">
<path fill="#8756D6" d="M70.313 9.375c-38.832 0-70.313 31.48-70.313 70.313s31.48 70.313 70.313 70.313c38.833 0 70.313-31.48 70.313-70.313s-31.48-70.313-70.313-70.313zM70.313 135.938c-31.066 0-56.25-25.184-56.25-56.25s25.184-56.25 56.25-56.25c31.066 0 56.25 25.184 56.25 56.25s-25.184 56.25-56.25 56.25z"></path>
<path fill="#8756D6" d="M89.063 84.375c2.589 0 4.688-2.099 4.688-4.688s-2.099-4.688-4.688-4.688h-9.991l13.891-20.837c1.436-2.154 0.854-5.064-1.3-6.5s-5.064-0.854-6.5 1.3l-14.849 22.275-14.85-22.275c-1.436-2.154-4.346-2.736-6.5-1.3s-2.736 4.346-1.3 6.5l13.892 20.837h-9.991c-2.589 0-4.688 2.099-4.688 4.688s2.099 4.688 4.688 4.688h14.063v9.375h-14.063c-2.589 0-4.688 2.099-4.688 4.688s2.099 4.688 4.688 4.688h14.063v14.063c0 2.589 2.099 4.688 4.688 4.688s4.688-2.099 4.688-4.688v-14.063h14.063c2.589 0 4.688-2.099 4.688-4.688s-2.099-4.688-4.688-4.688h-14.063v-9.375h14.063z"></path>
</svg>
