<!-- Generated by IcoMoon.io -->
<svg version="1.1" xmlns="http://www.w3.org/2000/svg" width="50" height="50" viewBox="0 0 150 150">
<path fill="#8756D6" d="M75 150c41.421 0 75-33.579 75-75s-33.579-75-75-75-75 33.579-75 75 33.579 75 75 75zM75 14.063c33.655 0 60.938 27.283 60.938 60.938s-27.283 60.938-60.938 60.938-60.938-27.283-60.938-60.938 27.283-60.938 60.938-60.938zM28.125 75v9.375c0 20.625 16.875 37.5 37.5 37.5h18.75c20.625 0 37.5-16.875 37.5-37.5v-9.375h-93.75zM56.25 110.887c-3.887-1.385-7.46-3.636-10.48-6.657-5.333-5.332-8.27-12.384-8.27-19.855h18.75v26.512zM84.375 112.5h-18.75v-28.125h18.75v28.125zM104.23 104.23c-3.021 3.021-6.593 5.272-10.48 6.657v-26.512h18.75c0 7.471-2.937 14.522-8.27 19.855zM33.011 56.25c0 0 0 0 0 0 1.431 0 2.653-1.034 2.889-2.445 0.902-5.374 5.518-9.274 10.975-9.274s10.073 3.9 10.975 9.274c0.237 1.411 1.458 2.445 2.889 2.445s2.653-1.034 2.889-2.445c0.158-0.943 0.238-1.895 0.238-2.829 0-9.369-7.623-16.992-16.992-16.992s-16.992 7.623-16.992 16.992c0 0.934 0.080 1.886 0.238 2.829 0.237 1.411 1.459 2.445 2.89 2.445zM89.261 56.25c0 0 0 0 0 0 1.431 0 2.653-1.034 2.889-2.445 0.902-5.374 5.518-9.274 10.975-9.274s10.073 3.9 10.975 9.274c0.237 1.411 1.459 2.445 2.889 2.445s2.653-1.034 2.889-2.445c0.158-0.943 0.238-1.895 0.238-2.829 0-9.369-7.623-16.992-16.992-16.992s-16.992 7.623-16.992 16.992c0 0.934 0.080 1.886 0.238 2.829 0.238 1.411 1.46 2.445 2.89 2.445z"></path>
</svg>
