<!-- Generated by IcoMoon.io -->
<svg version="1.1" xmlns="http://www.w3.org/2000/svg" width="50" height="50" viewBox="0 0 150 150">
<path fill="#8756D6" d="M140.625 46.875h-28.125v-14.063c0-12.944-25.184-23.438-56.25-23.438s-56.25 10.493-56.25 23.438v93.75c0 12.944 25.184 23.438 56.25 23.438s56.25-10.493 56.25-23.438v-14.063h28.125c5.178 0 9.375-4.197 9.375-9.375v-46.875c0-5.178-4.197-9.375-9.375-9.375zM25.789 37.851c-5.419-1.786-8.702-3.698-10.46-5.039 1.758-1.341 5.041-3.253 10.46-5.039 8.488-2.796 19.305-4.336 30.461-4.336s21.973 1.54 30.461 4.336c5.419 1.785 8.702 3.698 10.46 5.039-1.758 1.341-5.041 3.253-10.46 5.039-8.487 2.796-19.305 4.336-30.461 4.336s-21.973-1.54-30.461-4.336zM131.25 93.75h-18.75v-28.125h18.75v28.125z"></path>
</svg>
