<!-- Generated by IcoMoon.io -->
<svg version="1.1" xmlns="http://www.w3.org/2000/svg" width="50" height="50" viewBox="0 0 150 150">
<path fill="#8756D6" d="M75 28.303v-9.553h18.75v-9.375c0-5.178-4.197-9.375-9.375-9.375h-28.125c-5.178 0-9.375 4.197-9.375 9.375v9.375h18.75v9.553c-31.465 2.393-56.25 28.682-56.25 60.76 0 33.655 27.283 60.938 60.938 60.938s60.937-27.283 60.937-60.938c0-32.078-24.785-58.366-56.25-60.76zM103.458 122.208c-8.854 8.854-20.625 13.729-33.146 13.729s-24.292-4.876-33.146-13.729c-8.854-8.854-13.729-20.625-13.729-33.146s4.876-24.292 13.729-33.146c8.502-8.502 19.695-13.333 31.657-13.703l-3.175 45.999c-0.272 3.851 1.826 5.537 4.663 5.537s4.936-1.686 4.663-5.537l-3.175-45.999c11.963 0.371 23.156 5.202 31.658 13.704 8.854 8.854 13.729 20.625 13.729 33.146s-4.876 24.292-13.729 33.146z"></path>
</svg>
