<svg xmlns="http://www.w3.org/2000/svg" width="50" height="50" viewBox="0 0 50 50">
  <defs>
    <linearGradient id="a" x1="10.707%" x2="82.694%" y1="80.166%" y2="0%">
      <stop stop-color="#512da8" offset="0%"/>
      <stop stop-color="#8559da" offset="100%"/>
    </linearGradient>
    <linearGradient id="b" x1="-17.815%" y1="50%" y2="50%">
      <stop stop-color="#512da8" offset="0%"/>
      <stop stop-color="#fafafa" offset="100%"/>
    </linearGradient>
  </defs>
  <g fill="none" fill-rule="evenodd">
    <path fill="url(#a)" d="M46.7330428,28.8804533 C46.0134627,27.7554473 45.1390363,26.1715837 44.2656219,24.5353943 C43.4428108,22.9505245 42.7738341,20.2416549 42.7738341,18.5038326 L42.7232307,17.9926492 C42.0026385,7.46206972 32.8515227,-0.716864831 21.9515539,0.0499102832 C12.1324733,0.714046209 4.26567131,8.94430035 4.00860612,18.7594243 C3.85477183,23.7686192 5.7058436,28.3692699 8.73901041,31.8962342 L8.73901041,40.5863521 C8.73901041,41.4044468 9.25314079,42.1199024 10.0243364,42.3754941 L32.3890077,49.9416123 C33.2118188,50.197204 34.0852332,49.5833814 34.0852332,48.7139671 L34.0852332,44.0630031 L39.3813833,44.0630031 C41.231443,44.0630031 42.7738341,42.5797662 42.7738341,40.6889913 L42.7738341,31.4363704 L45.2938826,31.4363704 C46.6298119,31.4363704 47.452623,29.9541397 46.7330428,28.8804533"/>
    <path fill="url(#b)" d="M8.5488,17.7708 C8.5488,9.1458 15.7268,4.9578 24.2578,4.9578 C32.7888,4.9578 37.1138,10.8338 37.1138,13.7708 C37.1138,13.7708 39.4508,21.2088 27.5298,21.2088 C27.5298,21.2088 17.0118,20.8338 17.0118,24.7078 L17.0118,30.5838 L13.9738,30.5838 C13.9738,30.5838 14.0298,27.2448 12.9218,24.9578 C12.0798,23.2218 8.5488,22.8958 8.5488,17.7708"/>
  </g>
</svg>
