<svg xmlns="http://www.w3.org/2000/svg" width="50" height="50" viewBox="0 0 50 50">
  <defs>
    <linearGradient id="a" x1="-17.815%" y1="50%" y2="50%">
      <stop stop-color="#512da8" offset="0%"/>
      <stop stop-color="#8559da" offset="100%"/>
    </linearGradient>
    <linearGradient id="b" x1="-16.831%" y1="37.803%" y2="37.803%">
      <stop stop-color="#512da8" offset="0%"/>
      <stop stop-color="#8559da" offset="100%"/>
    </linearGradient>
    <linearGradient id="c" x1="-16.831%" y1="37.803%" y2="37.803%">
      <stop stop-color="#512da8" offset="0%"/>
      <stop stop-color="#8559da" offset="22.931%"/>
      <stop stop-color="#512da8" offset="100%"/>
    </linearGradient>
  </defs>
  <g fill="none" fill-rule="evenodd">
    <path fill="url(#a)" d="M24.5715745,16.2180157 L20.8398298,24.8765255 C20.7662979,25.0478196 20.8919149,25.2374667 21.0777872,25.2384863 L24.813617,25.2415451 L24.813617,16.0620157 C24.7155745,16.0609961 24.6175319,16.1119765 24.5715745,16.2180157"/>
    <path fill="url(#a)" d="M24.6984245,29.2083444 L24.685044,29.214456 L19.2762406,29.214456 C19.1712552,29.214456 19.0775918,29.2755719 19.0364211,29.3713203 L16.170939,35.9453623 C16.128739,36.0400921 16.0350756,36.1012081 15.9300902,36.1012081 L11.405428,36.1012081 C11.2150135,36.1012081 11.0884135,35.9056369 11.1686964,35.7345122 L24.7622391,6.47931224 C24.8095854,6.37847088 24.9042781,6.3285595 25,6.3285595 L25,0.0213905922 C24.911483,0.0152789944 24.8239952,0 24.7344489,0 C24.2753953,0 23.8225174,0.0774135718 23.3933126,0.229184917 L3.66327403,7.18723898 C1.89499158,7.80756616 0.811172359,9.52798093 1.02731864,11.3736835 L4.05851295,37.3347322 C4.20775681,38.5988144 4.96735661,39.7223297 6.09131728,40.3396011 L22.7860445,49.5008862 C23.3799321,49.8278567 24.0510149,50 24.7293025,50 C24.8198781,50 24.9094244,49.9887954 25,49.9826838 L25,29.2083444 L24.6984245,29.2083444 Z"/>
    <path fill="#FFFFFF" d="M24.5782128,6.50543529 L11.0891915,35.7895922 C11.0105532,35.9608863 11.1361702,36.156651 11.3251064,36.156651 L15.8146383,36.156651 C15.9177872,36.156651 16.0117447,36.0954745 16.0525957,36.000651 L18.8958298,29.420102 C18.9366809,29.3252784 19.0306383,29.2630824 19.1348085,29.2630824 L24.501617,29.2630824 L24.5148936,29.2569647 L24.8141277,29.2569647 L24.8141277,25.241749 L21.0782979,25.2386902 C20.8914043,25.2376706 20.7657872,25.0480235 20.8393191,24.8767294 L24.5710638,16.2182196 C24.6170213,16.1121804 24.7160851,16.0612 24.8141277,16.0622196 L24.8141277,6.35453333 C24.7191489,6.35453333 24.6241702,6.40449412 24.5782128,6.50543529"/>
    <path fill="url(#b)" d="M28.7841362,24.8834588 L25.0483064,16.2178118 C25.0033702,16.1148314 24.9094128,16.063851 24.814434,16.0628314 L24.814434,25.2413412 L28.5451574,25.2444 C28.7320511,25.2454196 28.8576681,25.0547529 28.7841362,24.8834588"/>
    <path fill="url(#c)" d="M43.6491791,40.2148872 C44.7607809,39.6022345 45.5172877,38.4921201 45.6747646,37.2443883 L48.9694289,11.2754592 C49.2030712,9.42119105 48.0770597,7.6372607 46.2912919,7.03276316 L26.0241146,0.189606312 C25.6926926,0.0784929356 25.3478902,0.022426553 25,0 L25,6.3110359 C25.0957213,6.3110359 25.1914425,6.36200534 25.2377593,6.46190544 L38.8322379,35.7397704 C38.911491,35.9120471 38.7848919,36.1077698 38.5944786,36.1077698 L34.071906,36.1087892 C33.9679506,36.1087892 33.8732586,36.0466065 33.8320882,35.9518033 L30.9686842,29.3716488 C30.9275138,29.2768456 30.833851,29.2146629 30.7288664,29.2146629 L25,29.2095659 L25,50 C25.5815324,49.9602438 26.151743,49.8022386 26.6663735,49.5219067 L43.6491791,40.2148872 Z"/>
  </g>
</svg>

