<svg xmlns="http://www.w3.org/2000/svg" width="50" height="50" viewBox="0 0 50 50">
  <defs>
    <linearGradient id="a" x1="-17.815%" y1="50%" y2="50%">
      <stop stop-color="#512da8" offset="0%"/>
      <stop stop-color="#8559da" offset="100%"/>
    </linearGradient>
    <linearGradient id="b" x1="10.707%" x2="82.694%" y1="80.166%" y2="0%">
      <stop stop-color="#8559da" offset="0%"/>
      <stop stop-color="#512da8" offset="100%"/>
    </linearGradient>
  </defs>
  <g fill="none" fill-rule="evenodd">
    <path fill="url(#a)" d="M22.9759255,3.65688 C22.4157087,3.65688 21.9608491,3.17196 21.9608491,2.57472 L21.9608491,1.08216 C21.9608491,0.48492 21.5070026,0 20.9467858,0 L15.9230694,0 C15.3628525,0 14.907993,0.48492 14.907993,1.08216 L14.907993,2.57472 C14.907993,3.17196 14.4541464,3.65688 13.8939296,3.65688 L11.1718635,3.65688 C10.6116467,3.65688 10.1567871,3.17196 10.1567871,2.57472 L10.1567871,1.08216 C10.1567871,0.48492 9.70294054,0 9.14272373,0 L4.11900732,0 C3.5587905,0 3.10393092,0.48492 3.10393092,1.08216 L3.10393092,2.57472 C3.10393092,3.17196 2.65008439,3.65688 2.08986758,3.65688 L0.828619959,3.65688 C0.407191036,3.65688 0.0647800363,4.02084 0.0647800363,4.47012 L0,26.18676 C0,26.63604 0.342411,27 0.763839923,27 L24.1723931,27 C24.593822,27 24.93522,26.63604 24.93522,26.18676 L25,4.47012 C25,4.02084 24.6586021,3.65688 24.2371731,3.65688 L22.9759255,3.65688 Z"/>
    <path fill="url(#b)" d="M46.9313952,23.0093439 C46.9313952,22.4511537 46.4725176,22 45.9070424,22 L40.8878156,22 C40.3223404,22 39.8634629,22.4511537 39.8634629,23.0093439 L39.8634629,24.3337952 C39.8634629,24.890985 39.4045854,25.3431391 38.8391102,25.3431391 L36.1213775,25.3431391 C35.5579328,25.3431391 35.1021009,24.8929857 35.1021009,24.3387969 L35.1021009,23.0093439 C35.1021009,22.4511537 34.6432233,22 34.0777481,22 L29.0585213,22 C28.4930461,22 28.0341686,22.4511537 28.0341686,23.0093439 L28.0341686,24.3387969 C28.0341686,24.890985 27.5752911,25.3431391 27.014892,25.3431391 L0.759381405,25.3431391 C0.340097287,25.3431391 0,25.6772529 0,26.0903937 L0.0229574938,49.251745 C0.0229574938,49.6648858 0.363054781,50 0.782338899,50 L49.2406186,50 C49.6599027,50 50,49.6648858 50,49.251745 L49.9770425,26.0903937 C49.9770425,25.6772529 49.6369452,25.3431391 49.2176611,25.3431391 L47.9506718,25.3431391 C47.387227,25.3431391 46.9313952,24.8929857 46.9313952,24.3387969 L46.9313952,23.0093439 Z"/>
  </g>
</svg>
