<svg xmlns="http://www.w3.org/2000/svg" width="50" height="50" viewBox="0 0 50 50">
  <defs>
    <linearGradient id="a" x1="-17.815%" y1="50%" y2="50%">
      <stop stop-color="#512da8" offset="0%"/>
      <stop stop-color="#8559da" offset="100%"/>
    </linearGradient>
    <linearGradient id="b" x1="10.707%" x2="82.694%" y1="80.166%" y2="0%">
      <stop stop-color="#8559da" offset="0%"/>
      <stop stop-color="#512da8" offset="100%"/>
    </linearGradient>
  </defs>
  <g fill="none" fill-rule="evenodd">
    <path fill="url(#a)" d="M38.9847707,30.591848 L38.9745268,26.903528 C38.9745268,26.807648 38.9233073,26.720948 38.8393073,26.674028 L35.3932585,24.744188 L24.7170634,30.931508 L31.9851122,35.294048 L38.8526244,30.819308 C38.9345756,30.773408 38.9847707,30.685688 38.9847707,30.591848"/>
    <path fill="url(#b)" d="M11.3224439,10.788956 L18.3948341,14.862836 L24.7173707,11.069456 L5.56332195,0.158516 C4.8657122,-0.237244 4.00010244,0.263576 4.00010244,1.062236 L4.00010244,26.410256 C4.00010244,26.611196 4.21829756,26.737676 4.39449268,26.638736 L10.7928341,23.027936 C10.8758098,22.981016 10.9270293,22.894316 10.9270293,22.799456 L10.9270293,11.017436 C10.9270293,10.815476 11.1462488,10.688996 11.3224439,10.788956"/>
    <path fill="#8559da" d="M10.582322,30.819818 L17.4488098,35.294558 L24.7168585,30.932018 L14.0416878,24.743678 L10.5946146,26.673518 C10.511639,26.720438 10.4593951,26.808158 10.4593951,26.903018 L10.4501756,30.592358 C10.4491512,30.686198 10.5003707,30.772898 10.582322,30.819818"/>
    <path fill="url(#a)" d="M24.7172683,30.931508 L11.3223415,38.522348 C11.1471707,38.623328 10.9269268,38.496848 10.9269268,38.294888 L10.9269268,27.134048 C10.9269268,27.040208 10.977122,26.953508 11.0590732,26.906588 L14.4180488,24.967568 L24.4580976,19.227008 C24.6189268,19.135208 24.7172683,18.964868 24.7172683,18.781268 L24.7172683,11.058848 L18.2482439,14.770628 L4.13317073,22.795988 C4.05121951,22.841888 4,22.929608 4,23.023448 L4,48.869228 C4,49.668908 4.86765854,50.169728 5.56526829,49.771928 C5.56526829,49.771928 22.2771707,40.145168 24.4806341,38.797748 C24.6322439,38.703908 24.7172683,38.543768 24.7172683,38.366288 L24.7172683,30.931508 Z"/>
    <path fill="url(#a)" d="M38.5075073,11.01713 L38.5075073,22.79915 C38.5075073,22.89401 38.5587268,22.98173 38.6417024,23.02763 L45.0400439,26.63843 C45.216239,26.73839 45.4344341,26.61089 45.4344341,26.40995 L45.4344341,1.06295 C45.4344341,0.26327 44.5688244,-0.23755 43.8712146,0.15821 L24.7171659,11.06915 L31.0397024,14.86253 L38.1120927,10.78865 C38.2882878,10.68869 38.5075073,10.81517 38.5075073,11.01713"/>
    <path fill="url(#b)" d="M24.7172683,38.366186 C24.7172683,38.543666 24.8022927,38.703806 24.9539024,38.797646 C27.1573659,40.145066 43.8692683,49.772846 43.8692683,49.772846 C44.566878,50.169626 45.4345366,49.668806 45.4345366,48.869126 L45.4345366,23.024366 C45.4345366,22.929506 45.3833171,22.842806 45.3013659,22.795886 L31.1862927,14.770526 L24.7172683,11.058746 L24.7172683,18.781166 C24.7172683,18.964766 24.8156098,19.135106 24.976439,19.226906 L35.0164878,24.967466 L38.3754634,26.906486 C38.4574146,26.953406 38.5076098,27.040106 38.5076098,27.133946 L38.5076098,38.294786 C38.5076098,38.496746 38.2873659,38.623226 38.1121951,38.522246 L24.7172683,30.931406 L24.7172683,38.366186 Z"/>
  </g>
</svg>
