<svg xmlns="http://www.w3.org/2000/svg" width="50" height="50" viewBox="0 0 50 50">
  <defs>
    <linearGradient id="a" x1="-16.831%" y1="37.803%" y2="37.803%">
      <stop stop-color="#512da8" offset="0%"/>
      <stop stop-color="#8559da" offset="100%"/>
    </linearGradient>
  </defs>
  <g fill="none" fill-rule="evenodd">
    <path fill="url(#a)" d="M46.5931869,24.9995085 C48.8919971,22.2541519 50.2020824,18.6605165 49.97437,14.7661008 C49.5169738,6.96449123 42.7684084,1 34.9315555,1 L0.734289379,1 C0.0146789836,1 -0.269222104,1.91020417 0.310409283,2.33483505 C3.52894071,4.68898081 6.22994411,7.70562939 8.20936559,11.1822948 C8.33948692,11.4113202 8.57902846,11.5538468 8.84222843,11.5538468 L35.1375809,11.5538468 C37.275711,11.5538468 39.189086,13.1088608 39.3960972,15.2320152 C39.6336672,17.6667622 37.712406,19.7230766 35.3199479,19.7230766 L33.9487451,19.7230766 L33.9477593,19.7220937 L33.7042747,19.7220937 L33.5642957,19.7220937 L21.1081355,19.7220937 C20.6517251,19.7220937 20.3145925,20.1290316 20.3875393,20.5772531 C20.6231378,22.032007 20.7483303,23.520181 20.7483303,25.0388262 C20.7483303,26.530932 20.6260951,27.9945324 20.3993685,29.4237299 C20.3274075,29.8719513 20.66454,30.2769234 21.1199647,30.2769234 L35.1375809,30.2769234 C37.2766967,30.2769234 39.1900718,31.8329204 39.3960972,33.9550918 C39.6336672,36.3898388 37.712406,38.4461532 35.3199479,38.4461532 L8.89053104,38.4461532 C8.62634531,38.4461532 8.385818,38.5896627 8.25569667,38.8186882 C7.77464205,39.66795 7.24528481,40.4857576 6.68043994,41.2799746 C4.93957424,43.724551 2.82115953,45.8860402 0.406028747,47.6700797 C-0.16965957,48.0956935 0.116213053,49 0.832866146,49 L33.7062463,49 L34.2553188,49 L34.3824829,49 L35.3199479,49 C43.190317,49 49.6323087,42.7917392 49.9832419,35.0274814 C49.9763416,35.153298 49.9654981,35.2781316 49.9566262,35.4029652 C49.9595835,35.3577499 49.9615551,35.3125346 49.9645124,35.2683022 C49.9664839,35.2329163 49.970427,35.1985133 49.9723985,35.1631274 C49.9723985,35.1621445 49.9714127,35.1601786 49.970427,35.1591956 C49.987185,34.8947843 50,34.6303729 50,34.3620298 C50,30.8037802 48.7194878,27.5394303 46.5931869,24.9995085"/>
    <path fill="#8559da" d="M23.916087,38.4243775 C23.9170595,38.4233962 23.918032,38.4224149 23.918032,38.4214335 C23.9462349,38.382181 23.9734653,38.3390031 24.0016683,38.2997506 C24.0327887,38.2516662 24.0629367,38.2065257 24.0930847,38.1584413 C24.0950297,38.1564787 24.0960022,38.1525535 24.0969747,38.1496095 C26.690672,34.1703807 28.1484719,29.3746985 27.9880069,24.2306497 C27.5805232,11.1889847 16.6086098,1 3.67707892,1 L0.728413676,1 C0.325792499,1 0,1.32972155 0,1.73500429 L0,10.802347 C0,11.208611 0.325792499,11.5373513 0.728413676,11.5373513 L3.82976376,11.5373513 C10.6480659,11.5373513 16.654318,16.5400908 17.4605329,23.3719998 C17.7688201,25.9881833 17.3204908,28.47974 16.3168554,30.6582573 C16.3090752,30.6749397 16.3012951,30.6906407 16.293515,30.7073231 C14.1598173,35.2841722 9.5481515,38.46363 4.21293464,38.46363 L0.728413676,38.46363 C0.325792499,38.46363 0,38.7933516 0,39.1986343 L0,48.2649957 C0,48.6712598 0.325792499,49 0.728413676,49 L4.21293464,49 C12.4024828,49 19.6360488,44.7989942 23.916087,38.4243775"/>
  </g>
</svg>
