<svg xmlns="http://www.w3.org/2000/svg" width="50" height="50" viewBox="0 0 50 50">
  <defs>
    <linearGradient id="a" x1="10.707%" x2="82.694%" y1="80.166%" y2="0%">
      <stop stop-color="#512da8" offset="0%"/>
      <stop stop-color="#8559da" offset="100%"/>
    </linearGradient>
    <linearGradient id="b" x1="-17.815%" y1="50%" y2="50%">
      <stop stop-color="#8559da" offset="0%"/>
      <stop stop-color="#512da8" offset="100%"/>
    </linearGradient>
  </defs>
  <g fill="none" fill-rule="evenodd">
    <path fill="url(#a)" d="M24.3846118,0.570812795 C23.4121765,1.80099439 22.4771015,3.06851887 21.584724,4.36485074 C17.7697034,9.90226831 15.1363358,15.2124277 13.5341126,20.596206 C12.4303825,24.2952863 11.9308219,27.7500373 12.0076773,31.1557092 C12.0429028,32.7059727 12.2691995,34.2861106 12.5083054,35.7627553 C12.8573574,37.9211745 13.6344517,40.03905 14.8150372,42.0577001 C16.4460813,44.8413461 18.677025,47.128865 21.4758454,48.8967842 C21.4982616,48.9117214 21.5185429,48.9234577 21.543094,48.937328 C21.8120881,49.0899003 23.4836948,49.9839959 25.5150278,50 L25.5150278,0 C25.0901878,0.0202718563 24.6728199,0.205919382 24.3846118,0.570812795"/>
    <path fill="url(#b)" d="M29.5906181,4.37902822 C28.7003754,3.08173573 27.7663679,1.81324826 26.7971349,0.582100625 C26.4747688,0.172429315 25.9901523,-0.0142698503 25.5151428,0.00920090186 C25.5151428,0.00920090186 24,19.0489003 24,27.7971764 C24,35.7142012 25.5151428,50.0051036 25.5151428,50.0051036 C25.5332892,50.0051036 25.5503682,50.0072373 25.5685146,50.0072373 C27.6670962,50.0072373 29.3888724,49.0492039 29.6066296,48.9233153 C29.6237086,48.9126468 29.6386527,48.9041119 29.6546643,48.8934434 C32.4460126,47.1320702 34.6737541,44.8532735 36.3047981,42.0794573 C37.488586,40.0620395 38.2688826,37.9454044 38.6211369,35.7882289 C38.8623777,34.3127721 39.0908092,32.7327637 39.1281696,31.1826272 C39.2103622,27.7761676 38.7161388,24.3227665 37.6177459,20.6218556 C36.0229947,15.235318 33.3981666,9.92239314 29.5906181,4.37902822 Z"/>
  </g>
</svg>
