<svg xmlns="http://www.w3.org/2000/svg" width="50" height="50" viewBox="0 0 50 50">
  <defs>
    <linearGradient id="a" x1="-16.831%" y1="37.803%" y2="37.803%">
      <stop stop-color="#512da8" offset="0%"/>
      <stop stop-color="#8559da" offset="100%"/>
    </linearGradient>
    <linearGradient id="b" x1="-17.815%" y1="50%" y2="50%">
      <stop stop-color="#8559da" offset="0%"/>
      <stop stop-color="#512da8" offset="100%"/>
    </linearGradient>
  </defs>
  <g fill="none" fill-rule="evenodd">
    <path fill="url(#a)" d="M25.3812,0 L9.2122,0 C4.1452,0 0.0002,4.146 0.0002,9.212 L0.0002,17.336 L0.0002,25.461 L0.0002,48.24 C0.0002,49.09 0.6882,49.778 1.5372,49.778 L9.8582,49.778 C10.7072,49.778 11.3952,49.09 11.3952,48.24 L11.3952,36.21 C11.3952,35.361 12.0842,34.673 12.9332,34.673 L21.6602,34.673 C22.5092,34.673 23.1982,35.361 23.1982,36.21 L23.1982,48.24 C23.1982,49.09 23.8862,49.778 24.7352,49.778 L33.0562,49.778 C33.9052,49.778 34.5932,49.09 34.5932,48.24 L34.5932,25.461 L34.5932,17.336 L34.5932,9.212 C34.5932,4.146 30.4482,0 25.3812,0"/>
    <path fill="url(#b)" d="M24.6679,0 C23.8559,0 23.1979,0.658 23.1979,1.47 L23.1979,16.156 C23.1979,23.138 28.8579,28.798 35.8399,28.798 L41.0119,28.798 C41.8239,28.798 42.4819,29.456 42.4819,30.268 L42.4819,40.953 C42.4819,41.765 43.1399,42.423 43.9519,42.423 L49.0249,42.423 C49.8369,42.423 50.4949,41.765 50.4949,40.953 L50.4949,28.798 L50.4949,23.923 L50.4949,9.286 C50.4949,4.157 46.3369,0 41.2089,0 L24.6679,0 Z"/>
    <path fill="#fff" d="M42.4816,20.8619 C41.5086,20.8619 40.7186,20.0729 40.7186,19.0989 C40.7186,18.1259 41.5086,17.3369 42.4816,17.3369 C43.4556,17.3369 44.2446,18.1259 44.2446,19.0989 C44.2446,20.0729 43.4556,20.8619 42.4816,20.8619"/>
  </g>
</svg>
