<svg xmlns="http://www.w3.org/2000/svg" width="50" height="50" viewBox="0 0 50 50">
  <defs>
    <linearGradient id="a" x1="-16.831%" y1="37.803%" y2="37.803%">
      <stop stop-color="#512da8" offset="0%"/>
      <stop stop-color="#8559da" offset="100%"/>
    </linearGradient>
  </defs>
  <g fill="none" fill-rule="evenodd">
    <path fill="#8559da" d="M10.3975909,22.0393878 C7.36622727,18.5026531 6.63088636,15.7842857 7.34065909,14.5526531 C8.0535,13.314898 10.7913409,12.5802041 15.4038409,13.4271429 C15.0336136,15.0812245 14.7533864,16.8342857 14.5519091,18.6577551 C14.5529318,18.6567347 14.5549773,18.6557143 14.556,18.6557143 C14.8065682,18.4720408 15.0469091,18.2863265 15.3036136,18.1057143 C16.5646364,17.2169388 17.8502045,16.3985714 19.13475,15.6353061 C20.3385,9.35469388 22.6232727,5.2822449 24.5991818,4.31081633 C24.6390682,4.29142857 24.6789545,4.27408163 24.7178182,4.2577551 C24.8088409,4.21795918 24.8988409,4.18734694 24.9878182,4.16183673 C25.02975,4.14959184 25.0716818,4.13530612 25.1125909,4.12714286 C25.2363409,4.09959184 25.3590682,4.08122449 25.47975,4.08122449 C25.6433864,4.08122449 25.8162273,4.11489796 25.9941818,4.16795918 C26.01975,4.17612245 26.0442955,4.18020408 26.0698636,4.18938776 C26.2396364,4.24653061 26.4145227,4.3322449 26.5935,4.43836735 C26.6282727,4.45877551 26.6630455,4.48020408 26.6978182,4.50265306 C26.8767955,4.61693878 27.0588409,4.75469388 27.2439545,4.91897959 C27.2766818,4.94857143 27.3094091,4.98122449 27.3421364,5.01183673 C27.5344091,5.19142857 27.7277045,5.39040816 27.9230455,5.62306122 C27.9373636,5.64040816 27.9516818,5.66081633 27.9649773,5.67816327 C28.1521364,5.90469388 28.3392955,6.16081633 28.5254318,6.43836735 C28.5581591,6.48632653 28.5898636,6.53020408 28.6215682,6.57918367 C28.8077045,6.86387755 28.9917955,7.18020408 29.1748636,7.51591837 C29.2167955,7.59244898 29.2577045,7.66795918 29.2986136,7.74653061 C29.4786136,8.09040816 29.6565682,8.45877551 29.8304318,8.85367347 C29.8682727,8.94040816 29.9061136,9.03122449 29.9439545,9.11897959 C30.1208864,9.53734694 30.2967955,9.97612245 30.4655455,10.4495918 C30.4706591,10.464898 30.4757727,10.4822449 30.4808864,10.497551 C30.4819091,10.497551 30.4829318,10.4965306 30.4839545,10.4965306 C31.1835,10.2791837 31.8779318,10.0791837 32.5600909,9.90571429 C33.2095227,9.74142857 33.8385,9.6077551 34.4562273,9.48734694 C34.4388409,9.43836735 34.4214545,9.39346939 34.4040682,9.3444898 C34.2977045,9.03938776 34.1892955,8.73836735 34.0778182,8.44653061 C34.05225,8.3822449 34.0277045,8.32 34.0021364,8.25673469 C33.8835,7.95265306 33.7628182,7.65469388 33.6370227,7.36591837 C33.6216818,7.33020408 33.6042955,7.2955102 33.5889545,7.25979592 C32.8975909,5.68938776 32.1152045,4.35571429 31.2591818,3.27510204 C31.2090682,3.21183673 31.1599773,3.1455102 31.1098636,3.08326531 C30.9861136,2.93428571 30.8603182,2.7944898 30.7345227,2.65469388 C30.6608864,2.57408163 30.58725,2.49040816 30.5125909,2.41285714 C30.3970227,2.29142857 30.2783864,2.17816327 30.15975,2.06591837 C30.0717955,1.9822449 29.9828182,1.89857143 29.8938409,1.82 C29.7813409,1.72102041 29.6667955,1.62714286 29.55225,1.53632653 C29.4530455,1.4577551 29.3538409,1.38020408 29.2525909,1.3077551 C29.1431591,1.22816327 29.0327045,1.15163265 28.9212273,1.07918367 C28.8117955,1.0077551 28.7013409,0.940408163 28.5898636,0.876122449 C28.4835,0.813877551 28.3771364,0.753673469 28.2687273,0.698571429 C28.1490682,0.636326531 28.0263409,0.58122449 27.9046364,0.528163265 C27.8023636,0.483265306 27.7000909,0.436326531 27.5967955,0.39755102 C27.4638409,0.346530612 27.3298636,0.305714286 27.1948636,0.264897959 C27.0987273,0.236326531 27.0036136,0.203673469 26.9064545,0.179183673 C26.7530455,0.140408163 26.5975909,0.114897959 26.4431591,0.0893877551 C26.3613409,0.0751020408 26.2815682,0.0557142857 26.19975,0.0465306122 C25.9614545,0.0169387755 25.7221364,-0.000408163265 25.47975,-0.000408163265 C25.1586136,-0.000408163265 24.8415682,0.0353061224 24.5286136,0.0863265306 C24.4120227,0.104693878 24.2974773,0.129183673 24.1829318,0.153673469 C23.9998636,0.195510204 23.8198636,0.24755102 23.6398636,0.306734694 C23.2962273,0.415918367 22.9617955,0.554693878 22.6355455,0.723061224 C22.6089545,0.737346939 22.5813409,0.74755102 22.55475,0.761836735 C22.3389545,0.878163265 22.1282727,1.01081633 21.9196364,1.15163265 C21.8889545,1.17204082 21.8592955,1.19244898 21.8286136,1.21387755 C21.1894091,1.6577551 20.5880455,2.21489796 20.0255455,2.87306122 C19.9836136,2.92204082 19.9406591,2.96897959 19.8987273,3.02 C19.7442955,3.20673469 19.5929318,3.39959184 19.4446364,3.60163265 C19.3290682,3.75673469 19.2165682,3.92 19.1050909,4.08428571 C19.0120227,4.22204082 18.9158864,4.35367347 18.8258864,4.49755102 C17.9483864,5.87102041 17.1690682,7.54755102 16.5053182,9.48734694 C10.2145227,8.26285714 5.63065909,9.33020408 3.79384091,12.5179592 C1.96418182,15.6934694 3.33361364,20.1659184 7.52577273,24.9567347 C7.93997727,24.4832653 8.37156818,24.0077551 8.841,23.5291837 C9.33293182,23.0281633 9.85656818,22.5322449 10.3975909,22.0393878"/>
    <path fill="url(#a)" d="M7.34055682,35.3605102 C6.53464773,33.9615306 7.59010227,30.6431633 11.764875,26.3829592 C12.5124886,25.6217347 13.3337386,24.8676531 14.206125,24.1227551 C15.274875,23.2105102 16.4244205,22.312551 17.6629432,21.4390816 C17.9216932,21.257449 18.1845341,21.0911224 18.4453295,20.9145918 C19.5887386,20.1380612 20.7433977,19.3972449 21.8949886,18.7370408 C23.0353295,18.0829592 24.2441932,17.4656122 25.4796477,16.8758163 C25.7649886,16.7390816 26.0421477,16.5952041 26.3305568,16.462551 C27.717375,15.829898 29.078625,15.2870408 30.4112386,14.8227551 C31.4851023,14.4492857 32.5415795,14.1217347 33.567375,13.862551 C39.3866932,12.3880612 42.8087386,13.1462245 43.6187386,14.5523469 C44.3274886,15.7829592 43.5941932,18.5003061 40.564875,22.035 C41.104875,22.529898 41.6254432,23.0268367 42.117375,23.5288776 C42.5868068,24.007449 43.0183977,24.4829592 43.4326023,24.9564286 C47.6257841,20.1666327 48.9952159,15.6941837 47.1645341,12.5176531 C45.3287386,9.33091837 40.744875,8.26561224 34.456125,9.48704082 C33.8383977,9.60744898 33.2104432,9.74112245 32.5599886,9.90642857 C31.8778295,10.0788776 31.1844205,10.2788776 30.4838523,10.4972449 L30.4818068,10.4972449 C28.5795341,11.090102 26.6199886,11.8421429 24.6277159,12.7523469 C22.9739659,13.5084694 21.3693068,14.3309184 19.8566932,15.1982653 C19.6163523,15.3360204 19.3760114,15.4931633 19.1356705,15.6360204 C17.851125,16.3992857 16.5655568,17.2176531 15.3045341,18.1054082 C15.0468068,18.2860204 14.8064659,18.4727551 14.5558977,18.6554082 C14.554875,18.6564286 14.5538523,18.657449 14.5528295,18.657449 C13.0514659,19.7533673 11.663625,20.885 10.3974886,22.0390816 C9.85748864,22.5319388 9.33282955,23.0278571 8.84089773,23.5288776 C8.37248864,24.007449 7.939875,24.4829592 7.52567045,24.9564286 C3.33351136,29.7472449 1.96407955,34.2207143 3.79373864,37.3952041 C5.13657955,39.7247959 7.94294318,40.9258163 11.8129432,40.9258163 C13.2437386,40.9258163 14.8218068,40.7584694 16.5226023,40.4268367 C16.0991932,39.1839796 15.7330568,37.8615306 15.4241932,36.4819388 C10.7994205,37.3339796 8.05442045,36.5992857 7.34055682,35.3605102"/>
    <path fill="#512da8" d="M43.6184318,35.3605102 C42.9045682,36.5992857 40.1595682,37.3339796 35.5347955,36.4819388 C36.3437727,32.8676531 36.7610455,28.8737755 36.7610455,24.9564286 C36.7610455,24.6747959 36.7467273,24.3952041 36.7426364,24.1145918 C37.6191136,24.8615306 38.4434318,25.6186735 39.1930909,26.3829592 C43.3688864,30.6431633 44.4243409,33.9615306 43.6184318,35.3605102 M24.6325227,37.1615306 C26.6155909,38.0666327 28.5628636,38.8145918 30.4518409,39.4043878 C28.9801364,43.4982653 27.0441136,45.8319388 25.4793409,45.8319388 C23.3479773,45.8319388 20.5221818,41.5176531 19.1343409,34.2737755 C19.3767273,34.4176531 19.6191136,34.5747959 19.8604773,34.7135714 C21.3700227,35.5809184 22.9746818,36.4033673 24.6315,37.1615306 M42.1170682,23.5288776 C41.6251364,23.0268367 41.1045682,22.529898 40.5645682,22.035 C39.0918409,20.6870408 37.4503636,19.3696939 35.6554773,18.1064286 C34.1674091,17.0564286 32.6353636,16.0788776 31.1022955,15.1972449 C30.8783182,15.0696939 30.639,14.9492857 30.4109318,14.8227551 C29.0793409,15.2870408 27.7170682,15.829898 26.3312727,16.462551 C26.0418409,16.5952041 25.7646818,16.7390816 25.4793409,16.8758163 C26.7147955,17.4656122 27.9236591,18.0829592 29.0629773,18.7360204 C30.2196818,19.4003061 31.3733182,20.1390816 32.5105909,20.912551 C32.6097955,22.2441837 32.6701364,23.5972449 32.6701364,24.9564286 C32.6701364,28.9543878 32.2497955,32.4982653 31.584,35.479898 C29.8872955,34.9452041 28.1312727,34.2696939 26.3353636,33.4503061 L26.3353636,33.4503061 C24.7930909,32.7452041 23.3009318,31.979898 21.8997955,31.1747959 C20.7471818,30.5145918 19.5904773,29.7747959 18.4450227,28.9952041 C18.3488864,27.7054082 18.2885455,26.3635714 18.2885455,24.9564286 C18.2885455,23.5472449 18.3488864,22.2054082 18.4450227,20.9145918 C18.18525,21.0911224 17.9213864,21.257449 17.6636591,21.4390816 C16.4241136,22.312551 15.2745682,23.2105102 14.2068409,24.1227551 C14.20275,24.4003061 14.1976364,24.6788776 14.1976364,24.9564286 C14.1976364,28.8737755 14.6149091,32.8676531 15.4249091,36.4819388 C15.7337727,37.8615306 16.0999091,39.1839796 16.5222955,40.4268367 C18.4133182,45.9819388 21.4303636,49.9135714 25.4793409,49.9135714 C29.5293409,49.9135714 32.5453636,45.9829592 34.4363864,40.4268367 C36.1371818,40.7584694 37.71525,40.9258163 39.1460455,40.9258163 C43.0160455,40.9258163 45.8224091,39.7247959 47.16525,37.3952041 C48.9949091,34.2196939 47.6254773,29.7472449 43.4322955,24.9564286 C43.0180909,24.4829592 42.5865,24.007449 42.1170682,23.5288776"/>
    <path fill="#8559da" d="M25,28 C26.657,28 28,26.657 28,25 C28,23.343 26.657,22 25,22 C23.343,22 22,23.343 22,25 C22,26.657 23.343,28 25,28"/>
  </g>
</svg>
