<?xml version="1.0" encoding="UTF-8"?>
<svg width="46px" height="44px" viewBox="0 0 46 44" version="1.1" xmlns="http://www.w3.org/2000/svg" xmlns:xlink="http://www.w3.org/1999/xlink">
    <defs></defs>
    <g id="Page-1" stroke="none" stroke-width="1" fill="none" fill-rule="evenodd">
        <g id="Index" transform="translate(-841.000000, -3729.000000)" fill="#512da8">
            <g id="Group-12-Copy" transform="translate(685.000000, 3588.000000)">
                <path d="M156.010919,164.899902 L156,164.899902 L156,184.899902 L175.984819,184.899902 L175.984819,164.899902 L166.007078,164.899902 C166.002632,164.09755 166.079707,158.646248 168.898976,154.900391 C171.948661,150.848389 177,149.199951 177,149.199951 L173.302796,141 C173.302796,141 166.00835,142.929688 160.740135,149.789795 C155.809207,156.210697 155.970105,163.93691 156.010919,164.899902 L156.010919,164.899902 Z M181.010919,164.899902 L181,164.899902 L181,184.899902 L200.984819,184.899902 L200.984819,164.899902 L191.007078,164.899902 C191.002632,164.09755 191.079707,158.646248 193.898976,154.900391 C196.948661,150.848389 202,149.199951 202,149.199951 L198.302796,141 C198.302796,141 191.00835,142.929688 185.740135,149.789795 C180.809207,156.210697 180.970105,163.93691 181.010919,164.899902 L181.010919,164.899902 Z" id="icon-quote"></path>
            </g>
        </g>
    </g>
</svg>
