<?xml version="1.0" standalone="no"?>
<!DOCTYPE svg PUBLIC "-//W3C//DTD SVG 20010904//EN"
 "http://www.w3.org/TR/2001/REC-SVG-20010904/DTD/svg10.dtd">
<svg version="1.1" xmlns="http://www.w3.org/2000/svg" xmlns:xlink="http://www.w3.org/1999/xlink" x="0" y="0" width="241" height="51" viewBox="0 0 964 510" xml:space="preserve">
    <defs>
        <animate xlink:href="#fri-right-bottom"
            attributeName="width"
            from="100%" to="0%"
            dur="5s"
            repeatCount="6"
            fill="freeze" />
    </defs>
  <g>
    <path id="fri-right-bottom" stroke="#000" fill="#000" stroke-width='8' d="M57.069,332.416V440.07c-20.421-17.425-37.891-38.194-51.567-61.458v-87.326
    c0.012,0.012,0.023,0.021,0.035,0.033l241.259-153.917V16.089c17.887,2.449,35.154,6.845,51.567,12.988v118.759L57.069,332.416
    L57.069,332.416z" />
    <path id="sec-right-bottom" stroke="#000" fill="#000" stroke-width='8' d="M126.15,481.401V362.902l241.293-184.533V69.097c20.224,16.718,37.688,36.646,51.567,59.033v89.4
    c-0.041-0.039-0.081-0.075-0.122-0.112l-241.171,156.69l0,0V495.1C159.808,492.425,142.543,487.781,126.15,481.401
    L126.15,481.401z" />
    <path id="fri-left-bottom" stroke="#000" fill="#000" stroke-width='8' d="M126.15,149.175V30.198c16.393-6.38,33.658-11.022,51.567-13.697v120.992L419.01,294.071v89.398
    c-13.879,22.389-31.343,42.317-51.567,59.033v-109.29L126.15,149.175" />
    <path id="sec-left-bottom" stroke="#000" fill="#000" stroke-width='8' d="M246.795,374.199L5.537,220.28l-0.035-87.291c13.676-23.266,31.146-44.035,51.567-61.46v108.63
    l241.294,183.606v118.76c-16.413,6.142-33.68,10.537-51.567,12.988V374.199H246.795z" />
</g>
</svg>
