<svg xmlns="http://www.w3.org/2000/svg" xmlns:xlink="http://www.w3.org/1999/xlink" version="1.1" id="Layer_1" x="0px" y="0px" viewBox="0 0 512 512" style="enable-background:new 0 0 512 512;" xml:space="preserve" width="50" height="50" class=""><g><path style="fill:#512DA8" d="M31.543,480.306l116.98-173.568c7.542-11.19,24.013-11.19,31.555,0l114.733,170.235" data-original="#FF991F" class="" data-old_color="#512da8"/><path style="fill:#8559DA" d="M111.93,480.306l168.664-250.254c7.542-11.19,24.013-11.19,31.555,0l165.543,245.624" data-original="#FFD41D" class="" data-old_color="#8559da"/><polyline style="fill:#512DA8" points="296.372,221.658 296.372,121.52 351.017,145.725 296.372,180.04 " data-original="#00C3FF" class="active-path" data-old_color="#512da8"/><path d="M239.564,41.701c0.198,0,0.396-0.006,0.597-0.018c0.097-0.006,0.294-0.02,0.391-0.028c5.501-0.485,9.568-5.339,9.083-10.84  c-0.481-5.454-5.252-9.5-10.702-9.094c-5.487,0.352-9.666,5.071-9.342,10.566C229.903,37.601,234.31,41.701,239.564,41.701z" data-original="#000000" class="" style="fill:#000000"/><path d="M371.638,86.378c0.055,0.049,0.185,0.164,0.24,0.212c1.889,1.631,4.214,2.429,6.528,2.429c2.807,0,5.599-1.176,7.576-3.468  c3.587-4.158,3.147-10.425-0.969-14.042c-4.1-3.68-10.41-3.351-14.104,0.746C367.211,76.356,367.537,82.679,371.638,86.378z" data-original="#000000" class="" style="fill:#000000"/><path d="M323.673,55.939l0.339,0.146c1.248,0.515,2.54,0.759,3.811,0.759c3.929,0,7.656-2.331,9.248-6.188  c2.091-5.067-0.288-10.865-5.316-13.011c-5.037-2.211-10.921,0.062-13.158,5.095C316.354,47.787,318.626,53.697,323.673,55.939z" data-original="#000000" class="" style="fill:#000000"/><path d="M399.3,110.643c2.221,0,4.455-0.735,6.311-2.248c4.281-3.488,4.924-9.787,1.436-14.068c-0.015-0.02-0.094-0.115-0.109-0.134  c-3.51-4.244-9.762-4.814-14.02-1.317c-4.258,3.495-4.855,9.813-1.376,14.084C393.519,109.385,396.397,110.643,399.3,110.643z" data-original="#000000" class="" style="fill:#000000"/><path d="M268.851,42.027c0.299,0.026,0.596,0.04,0.89,0.04c5.125,0,9.491-3.92,9.95-9.122c0.485-5.501-3.581-10.354-9.083-10.84  l-0.1-0.009c-5.5-0.479-10.305,3.585-10.791,9.086C259.233,36.684,263.35,41.541,268.851,42.027z" data-original="#000000" class="" style="fill:#000000"/><path d="M296.85,46.816c0.84,0.218,1.683,0.322,2.514,0.322c4.398-0.001,8.429-2.925,9.642-7.372  c1.453-5.328-1.688-10.825-7.016-12.278c-0.091-0.025-0.28-0.073-0.372-0.096c-5.364-1.299-10.762,1.995-12.065,7.36  C288.254,40.096,291.522,45.483,296.85,46.816z" data-original="#000000" class="" style="fill:#000000"/><path d="M348.979,69.336c1.672,1.077,3.549,1.594,5.406,1.594c3.231,0,6.403-1.563,8.33-4.454  c3.063-4.595,1.822-10.804-2.773-13.867c-0.118-0.079-0.237-0.155-0.358-0.229c-4.691-2.913-10.848-1.467-13.761,3.224  C342.922,60.271,344.342,66.405,348.979,69.336z" data-original="#000000" class="" style="fill:#000000"/><path d="M442.773,230.854c-5.483-0.56-10.406,3.429-10.971,8.923l-0.024,0.245c-0.485,5.501,3.578,10.386,9.08,10.871  c0.301,0.027,0.6,0.04,0.896,0.04c5.122,0,9.482-3.891,9.941-9.091l-9.946-1.041l9.947,1.024  C452.262,236.331,448.267,231.419,442.773,230.854z" data-original="#000000" class="" style="fill:#000000"/><path d="M430.555,289.648c-5.032-2.273-10.956-0.036-13.229,4.997l-0.14,0.321c-2.147,5.088,0.238,10.954,5.326,13.101  c1.27,0.535,2.586,0.789,3.883,0.789c3.865-0.001,7.54-2.255,9.174-6.012C437.816,297.818,435.578,291.915,430.555,289.648z   M427.434,299.211l-0.995-0.45l1.052,0.476L427.434,299.211z" data-original="#000000" class="" style="fill:#000000"/><path d="M407.888,130.3c1.854,3.182,5.202,4.966,8.648,4.966c1.67,0,3.364-0.42,4.921-1.302c4.805-2.723,6.493-8.825,3.77-13.63  c-0.045-0.08-0.142-0.245-0.189-0.323c-2.852-4.727-8.992-6.239-13.72-3.39C406.607,119.461,405.082,125.578,407.888,130.3z" data-original="#000000" class="" style="fill:#000000"/><path d="M441.807,200.808c-5.513,0.324-9.717,5.106-9.393,10.619c0.313,5.314,4.719,9.413,9.974,9.413  c0.197,0,0.397-0.006,0.597-0.018c5.513-0.324,9.72-5.057,9.396-10.569l-0.006-0.1C452.05,204.64,447.328,200.479,441.807,200.808z" data-original="#000000" class="" style="fill:#000000"/><path d="M420.313,155.829c0.013,0.033,0.063,0.16,0.077,0.193c1.568,3.891,5.301,6.242,9.252,6.242c1.236,0,2.494-0.23,3.712-0.716  c5.116-2.037,7.612-7.851,5.597-12.975l-9.323,3.616l9.314-3.639c-2.01-5.145-7.808-7.686-12.953-5.676  C420.845,144.885,418.303,150.684,420.313,155.829z" data-original="#000000" class="" style="fill:#000000"/><path d="M436.132,171.218c-5.371,1.218-8.742,6.559-7.549,11.931c1.002,4.688,5.146,7.91,9.769,7.91  c0.668,0,1.347-0.067,2.027-0.207c5.409-1.114,8.892-6.402,7.778-11.812c-0.014-0.066-0.049-0.23-0.064-0.297  C446.868,173.361,441.517,169.998,436.132,171.218z" data-original="#000000" class="" style="fill:#000000"/><path d="M446.027,273.12c0.013-0.045,0.05-0.188,0.062-0.233c1.377-5.348-1.836-10.82-7.184-12.198  c-5.349-1.38-10.795,1.82-12.173,7.17c-1.453,5.328,1.688,10.825,7.016,12.278c0.881,0.24,1.766,0.355,2.637,0.355  C440.783,280.493,444.814,277.568,446.027,273.12z" data-original="#000000" class="" style="fill:#000000"/><path d="M64.988,186.174c0.784,0.19,1.569,0.281,2.342,0.281c4.52,0,8.633-3.108,9.744-7.691c1.301-5.368-1.995-10.773-7.362-12.075  c-5.37-1.298-10.773,1.996-12.075,7.362l-0.023,0.097C56.313,179.516,59.621,184.873,64.988,186.174z" data-original="#000000" class="" style="fill:#000000"/><path d="M72.857,157.151c1.27,0.535,2.586,0.789,3.883,0.789c3.9,0,7.607-2.297,9.218-6.116l0.048-0.112  c2.136-5.093-0.262-10.953-5.355-13.089c-5.093-2.137-10.953,0.263-13.089,5.354l-0.031,0.073  C65.384,149.138,67.769,155.003,72.857,157.151z" data-original="#000000" class="" style="fill:#000000"/><path d="M76.852,263.632c-1.224-5.386-6.583-8.762-11.968-7.535c-5.385,1.224-8.759,6.582-7.535,11.967  c0.011,0.047,0.044,0.19,0.056,0.237c1.11,4.579,5.211,7.666,9.726,7.666c0.776,0,1.566-0.092,2.354-0.282  C74.852,274.383,78.153,268.999,76.852,263.632z" data-original="#000000" class="" style="fill:#000000"/><path d="M81.583,326.587c1.896,3.054,5.171,4.736,8.521,4.736c1.798,0,3.618-0.485,5.256-1.502c4.692-2.913,6.142-9.067,3.229-13.76  c-2.854-4.729-9-6.25-13.729-3.395c-4.729,2.854-6.249,9-3.396,13.729C81.487,326.431,81.561,326.552,81.583,326.587z" data-original="#000000" class="" style="fill:#000000"/><path d="M52.522,236.976c0.387,5.256,4.765,9.218,9.951,9.218c0.249,0,0.5-0.01,0.752-0.028c5.508-0.404,9.641-5.248,9.236-10.756  s-5.195-9.643-10.707-9.239c-5.508,0.404-9.645,5.198-9.24,10.706L52.522,236.976z" data-original="#000000" class="" style="fill:#000000"/><path d="M61.83,216.177c0.251,0.019,0.5,0.027,0.748,0.027c5.188,0,9.57-3.987,9.957-9.244c0.485-5.501-3.581-10.354-9.083-10.84  c-5.493-0.485-10.354,3.581-10.84,9.082c-0.004,0.049-0.016,0.196-0.02,0.245C52.187,210.955,56.322,215.772,61.83,216.177z" data-original="#000000" class="" style="fill:#000000"/><path d="M209.841,46.037c0.748,0,1.507-0.085,2.266-0.261c5.344-1.191,8.743-6.467,7.604-11.835  c-1.145-5.401-6.448-8.853-11.857-7.707l-0.345,0.078c-5.37,1.282-8.675,6.672-7.395,12.042  C201.208,42.948,205.315,46.037,209.841,46.037z" data-original="#000000" class="" style="fill:#000000"/><path d="M154.282,68.437c1.776,0,3.574-0.472,5.198-1.462c4.68-2.794,6.266-8.838,3.535-13.577  c-2.757-4.785-8.872-6.43-13.657-3.671c-0.094,0.055-0.273,0.162-0.366,0.22c-4.691,2.911-6.128,9.07-3.218,13.763  C147.665,66.76,150.935,68.437,154.282,68.437z" data-original="#000000" class="" style="fill:#000000"/><path d="M181.163,55.029c1.247,0,2.514-0.234,3.739-0.729c5.072-1.993,7.623-7.696,5.702-12.817  c-1.939-5.171-7.705-7.789-12.875-5.852c-0.102,0.038-0.296,0.115-0.396,0.156c-5.104,2.106-7.528,7.948-5.423,13.053  C173.5,52.699,177.231,55.029,181.163,55.029z" data-original="#000000" class="" style="fill:#000000"/><path d="M129.825,85.923c2.283,0,4.579-0.777,6.458-2.367c4.249-3.528,4.834-9.833,1.306-14.082s-9.833-4.833-14.082-1.307  l-0.148,0.125c-4.216,3.567-4.739,9.875-1.172,14.091C124.165,84.72,126.985,85.923,129.825,85.923z" data-original="#000000" class="" style="fill:#000000"/><path d="M101.864,104.524c1.885,1.646,4.22,2.449,6.549,2.449c2.795,0,5.582-1.16,7.566-3.415  c3.648-4.146,3.245-10.465-0.901-14.113s-10.465-3.245-14.114,0.9c-0.018,0.021-0.102,0.117-0.12,0.138  C97.242,94.647,97.715,100.903,101.864,104.524z" data-original="#000000" class="" style="fill:#000000"/><path d="M67.174,298.411c1.606,3.831,5.321,6.141,9.232,6.141c1.288,0,2.598-0.251,3.859-0.78c5.093-2.136,7.493-7.99,5.357-13.083  c-2.079-5.116-7.912-7.58-13.028-5.501c-5.117,2.079-7.58,7.912-5.501,13.028C67.107,298.25,67.159,298.376,67.174,298.411z" data-original="#000000" class="" style="fill:#000000"/><path d="M85.314,129.679c1.63,1.012,3.442,1.493,5.234,1.493c3.365,0,6.662-1.696,8.563-4.759c2.913-4.692,1.469-10.857-3.223-13.77  c-4.692-2.914-10.857-1.471-13.77,3.223l-0.053,0.085C79.152,120.644,80.621,126.766,85.314,129.679z" data-original="#000000" class="" style="fill:#000000"/><path d="M502,470.306h-15.861c-0.046-0.073-0.084-0.148-0.132-0.22L320.464,224.462c-3.467-5.144-8.417-8.948-14.07-11.021v-27.873  l49.963-31.375c3.131-1.966,4.922-5.499,4.656-9.187s-2.544-6.928-5.924-8.426l-54.646-24.205c-3.092-1.369-6.668-1.083-9.504,0.762  c-2.835,1.846-4.545,4.999-4.545,8.382v58.369c-0.002,0.107-0.002,0.215,0,0.322v33.23c-5.653,2.073-10.603,5.877-14.07,11.021  l-67.808,100.61l-16.124-23.923c-5.403-8.018-14.401-12.804-24.07-12.804s-18.667,4.786-24.07,12.804L26.246,470.306H10  c-5.523,0-10,4.478-10,10s4.477,10,10,10h21.543c0.004,0,0.009,0.001,0.013,0.001c0.005,0,0.011-0.001,0.016-0.001H502  c5.523,0,10-4.478,10-10S507.523,470.306,502,470.306z M306.394,136.886l23.406,10.368l-23.406,14.698V136.886z M156.838,312.327  c1.706-2.53,4.434-3.981,7.485-3.981s5.779,1.451,7.485,3.981l20.65,30.638l-35.452,52.602c-3.086,4.58-1.876,10.795,2.704,13.881  c4.582,3.09,10.796,1.876,13.881-2.703L288.909,235.64c1.706-2.53,4.434-3.981,7.485-3.981s5.78,1.451,7.485,3.981l158.157,234.666  H50.364L156.838,312.327z" data-original="#000000" class="" style="fill:#000000"/><circle cx="140" cy="438.22" r="10" data-original="#000000" class="" style="fill:#000000"/></g> </svg>
