<svg xmlns="http://www.w3.org/2000/svg" xmlns:xlink="http://www.w3.org/1999/xlink" version="1.1" id="Layer_1" x="0px" y="0px" viewBox="0 0 512 512" style="enable-background:new 0 0 512 512;" xml:space="preserve" width="50" height="50" class=""><g><rect x="218.96" y="49.827" style="fill:#8559DA" width="283.04" height="138.47" data-original="#92E03F" class="" data-old_color="#8559da"/><path style="fill:#FFFFFF" d="M338.442,217.747v-14.515c0-5.482-1.45-10.866-4.204-15.606l-23.225-39.982  c-2.104-3.623-3.213-7.738-3.213-11.927v-26.572c0-16.923,13.718-30.641,30.641-30.641l0,0v39.562V42.821  c0-8.783,7.12-15.902,15.902-15.902l0,0c8.783,0,15.902,7.12,15.902,15.902v22.884V33.318c0-8.568,6.946-15.514,15.515-15.514l0,0  c8.568,0,15.514,6.946,15.514,15.514v31.223V45.73c0-8.675,7.033-15.708,15.708-15.708l0,0c8.675,0,15.708,7.033,15.708,15.708  v19.587V50.578c0-8.14,6.599-14.739,14.739-14.739l0,0c8.14,0,14.739,6.599,14.739,14.739v84.005c0,14.78-1.979,29.493-5.883,43.748  l-10.795,39.416" data-original="#FFD41D" class="" data-old_color="#ffffff"/><rect x="323.7" y="217.75" style="fill:#8559DA" width="138.47" height="283.04" data-original="#92E03F" class="" data-old_color="#8559da"/><path style="fill:#FFFFFF" d="M293.034,338.445h14.515c5.482,0,10.866-1.45,15.606-4.204l39.982-23.225  c3.623-2.104,7.738-3.213,11.927-3.213h26.572c16.923,0,30.641,13.718,30.641,30.641l0,0h-39.562h75.245  c8.783,0,15.902,7.12,15.902,15.902l0,0c0,8.783-7.12,15.902-15.902,15.902h-22.884h32.387c8.568,0,15.514,6.946,15.514,15.515l0,0  c0,8.568-6.946,15.514-15.514,15.514H446.24h18.811c8.675,0,15.708,7.033,15.708,15.708l0,0c0,8.675-7.033,15.708-15.708,15.708  h-19.587h14.739c8.14,0,14.739,6.599,14.739,14.739l0,0c0,8.14-6.599,14.739-14.739,14.739h-84.005  c-14.78,0-29.493-1.979-43.748-5.883l-39.416-10.795" data-original="#FFD41D" class="" data-old_color="#ffffff"/><rect x="10" y="323.71" style="fill:#8559DA" width="283.04" height="138.47" data-original="#92E03F" class="" data-old_color="#8559da"/><path style="fill:#FFFFFF" d="M173.557,294.233v14.515c0,5.482,1.45,10.866,4.204,15.606l23.225,39.982  c2.104,3.623,3.213,7.738,3.213,11.927v26.572c0,16.923-13.718,30.641-30.641,30.641l0,0v-39.562v75.245  c0,8.783-7.12,15.902-15.902,15.902l0,0c-8.783,0-15.902-7.12-15.902-15.902v-22.884v32.387c0,8.568-6.946,15.514-15.515,15.514l0,0  c-8.568,0-15.514-6.946-15.514-15.514v-31.223v18.811c0,8.675-7.033,15.708-15.708,15.708l0,0c-8.675,0-15.708-7.033-15.708-15.708  v-19.587v14.739c0,8.14-6.599,14.739-14.739,14.739l0,0c-8.14,0-14.739-6.599-14.739-14.739v-84.005  c0-14.78,1.979-29.493,5.883-43.748l10.795-39.416" data-original="#FFD41D" class="" data-old_color="#ffffff"/><rect x="49.83" y="11.211" style="fill:#8559DA" width="138.47" height="283.04" data-original="#92E03F" class="" data-old_color="#8559da"/><path style="fill:#FFFFFF" d="M221.232,173.556h-14.675c-5.542,0-10.986,1.45-15.779,4.204l-40.424,23.225  c-3.663,2.104-7.823,3.213-12.059,3.213h-26.866c-17.11,0-30.98-13.718-30.98-30.641l0,0h40H44.371  c-8.88,0-16.078-7.12-16.078-15.902l0,0c0-8.783,7.199-15.902,16.078-15.902h23.137H34.763c-8.663,0-15.686-6.946-15.686-15.515l0,0  c0-8.568,7.023-15.514,15.686-15.514h31.568h-19.02c-8.771,0-15.882-7.033-15.882-15.708l0,0c0-8.675,7.111-15.708,15.882-15.708  h19.804H52.214c-8.23,0-14.902-6.599-14.902-14.739l0,0c0-8.14,6.672-14.739,14.902-14.739h84.934  c14.944,0,29.82,1.979,44.233,5.883l39.852,10.795" data-original="#FFD41D" class="" data-old_color="#ffffff"/><path d="M502,178.294h-35.382c3.669-14.277,5.552-28.964,5.552-43.711V59.828H502c5.523,0,10-4.477,10-10s-4.477-10-10-10h-32.291  c-4.008-8.271-12.488-13.988-22.278-13.988c-4.073,0-7.919,0.989-11.311,2.74c-4.71-5.25-11.544-8.558-19.136-8.558  c-3.019,0-5.918,0.523-8.611,1.483c-4.269-8.137-12.802-13.701-22.611-13.701c-8.785,0-16.548,4.463-21.139,11.241  c-3.153-1.368-6.628-2.126-10.278-2.126c-13.27,0-24.235,10.032-25.724,22.909H218.958c-5.523,0-10,4.477-10,10v3.57l-10.661-2.92  V11.321c0-5.523-4.477-10-10-10s-10,4.477-10,10V45.07c-13.896-3.466-28.171-5.242-42.503-5.242H59.83V11.211  c0-5.523-4.477-10-10-10s-10,4.477-10,10V42.92c-7.613,4.223-12.78,12.341-12.78,21.646c0,4.073,0.989,7.919,2.74,11.311  c-5.25,4.71-8.558,11.543-8.558,19.136c0,3.019,0.523,5.918,1.483,8.612c-8.137,4.269-13.701,12.802-13.701,22.611  c0,8.785,4.463,16.548,11.241,21.139c-1.368,3.153-2.126,6.628-2.126,10.278c0,12.852,9.41,23.542,21.7,25.556v111.043  c0,5.523,4.477,10,10,10H53.4l-2.589,9.453H10c-5.523,0-10,4.477-10,10s4.477,10,10,10h35.382  c-3.669,14.277-5.552,28.964-5.552,43.711v74.755H10c-5.523,0-10,4.477-10,10s4.477,10,10,10h32.291  c4.008,8.271,12.487,13.988,22.278,13.988c4.073,0,7.919-0.989,11.311-2.74c4.71,5.25,11.544,8.558,19.136,8.558  c3.019,0,5.918-0.523,8.612-1.483c4.269,8.137,12.802,13.701,22.611,13.701c8.785,0,16.548-4.463,21.139-11.241  c3.153,1.368,6.628,2.126,10.278,2.126c13.27,0,24.235-10.032,25.724-22.909h109.662c5.523,0,10-4.477,10-10v-3.57l10.661,2.92  v39.267c0,5.523,4.477,10,10,10s10-4.477,10-10V466.93c13.896,3.466,28.171,5.242,42.503,5.242h75.964v28.617  c0,5.523,4.477,10,10,10s10-4.477,10-10V469.08c7.613-4.223,12.779-12.341,12.779-21.647c0-4.073-0.989-7.919-2.74-11.311  c5.25-4.71,8.558-11.543,8.558-19.136c0-3.019-0.523-5.918-1.483-8.612c8.137-4.269,13.701-12.802,13.701-22.611  c0-8.785-4.463-16.548-11.241-21.139c1.368-3.153,2.126-6.628,2.126-10.278c0-12.852-9.41-23.542-21.7-25.556V217.747  c0-5.523-4.477-10-10-10h-3.57l2.589-9.453H502c5.523,0,10-4.477,10-10S507.523,178.294,502,178.294z M66.916,131.751H34.529  c-3.041,0-5.515-2.474-5.515-5.515s2.474-5.515,5.515-5.515h31.223c5.523,0,10-4.477,10-10s-4.477-10-10-10H46.941  c-3.147,0-5.708-2.561-5.708-5.708s2.561-5.708,5.708-5.708h19.587c5.523,0,10-4.477,10-10s-4.477-10-10-10H51.789  c-2.613,0-4.739-2.126-4.739-4.739s2.126-4.739,4.739-4.739h84.004c13.886,0,27.716,1.859,41.107,5.527l32.058,8.78v89.421h-4.515  c-7.238,0-14.371,1.921-20.629,5.557l-39.982,23.225c-2.094,1.217-4.481,1.86-6.904,1.86h-26.572c-7.756,0-14.526-4.3-18.053-10.641  h26.974c5.523,0,10-4.477,10-10s-4.477-10-10-10H44.032c-3.254,0-5.902-2.648-5.902-5.902s2.648-5.902,5.902-5.902h22.884  c5.523,0,10-4.477,10-10S72.438,131.751,66.916,131.751z M163.558,469.179c0,3.254-2.648,5.902-5.902,5.902  s-5.902-2.648-5.902-5.902v-22.884c0-5.523-4.477-10-10-10s-10,4.477-10,10v32.386c0,3.041-2.474,5.515-5.515,5.515  s-5.515-2.474-5.515-5.515v-31.223c0-5.523-4.477-10-10-10s-10,4.477-10,10v18.811c0,3.147-2.561,5.708-5.708,5.708  s-5.708-2.561-5.708-5.708v-19.587c0-5.523-4.477-10-10-10s-10,4.477-10,10v14.739c0,2.613-2.126,4.739-4.739,4.739  s-4.739-2.126-4.739-4.739v-84.005c0-13.885,1.86-27.715,5.528-41.106l8.78-32.058h89.421v4.515c0,7.238,1.921,14.371,5.557,20.629  l23.225,39.982c1.217,2.094,1.86,4.481,1.86,6.904v26.572c0,7.756-4.3,14.526-10.641,18.053v-26.974c0-5.523-4.477-10-10-10  s-10,4.477-10,10v75.246H163.558z M283.042,452.172h-99.484v-9.921c17.59-4.467,30.641-20.437,30.641-39.396v-26.572  c0-5.947-1.579-11.809-4.566-16.95l-23.225-39.982c-1.865-3.21-2.851-6.87-2.851-10.583v-4.515h4.739c5.523,0,10-4.477,10-10  v-62.758c0-5.523-4.477-10-10-10s-10,4.477-10,10v52.758H59.83V183.556h11.13c4.467,17.59,20.437,30.641,39.396,30.641h26.572  c5.947,0,11.809-1.579,16.95-4.566l39.982-23.225c3.21-1.865,6.87-2.851,10.583-2.851h4.515v4.739c0,5.523,4.477,10,10,10h69.987  c5.523,0,10-4.477,10-10s-4.477-10-10-10h-59.987V59.828h99.484v9.921c-17.59,4.467-30.641,20.437-30.641,39.396v26.572  c0,5.947,1.579,11.809,4.566,16.95l23.225,39.982c1.865,3.21,2.851,6.87,2.851,10.583v4.515h-4.739c-5.523,0-10,4.477-10,10v70.962  c0,5.523,4.477,10,10,10s10-4.477,10-10v-60.962h111.758c0.012,0,0.024,0.002,0.037,0.002c0.02,0,0.039-0.002,0.059-0.002h6.613  v100.697h-11.13c-4.467-17.59-20.437-30.641-39.396-30.641h-26.572c-5.947,0-11.809,1.579-16.95,4.566l-39.982,23.225  c-3.21,1.865-6.87,2.851-10.583,2.851h-4.515v-4.739c0-5.523-4.477-10-10-10h-72.33c-5.523,0-10,4.477-10,10s4.477,10,10,10h62.33  v118.466H283.042z M445.084,380.249h32.386c3.041,0,5.515,2.474,5.515,5.515c0,3.041-2.474,5.515-5.515,5.515h-31.223  c-5.523,0-10,4.477-10,10s4.477,10,10,10h18.811c3.147,0,5.708,2.561,5.708,5.708s-2.561,5.708-5.708,5.708h-19.587  c-5.523,0-10,4.477-10,10s4.477,10,10,10h14.739c2.613,0,4.739,2.126,4.739,4.739s-2.126,4.739-4.739,4.739h-84.005  c-13.886,0-27.716-1.859-41.106-5.527l-32.058-8.78v-89.421h4.515c7.238,0,14.371-1.921,20.629-5.557l39.982-23.225  c2.094-1.217,4.481-1.86,6.904-1.86h26.572c7.756,0,14.526,4.3,18.053,10.641h-26.974c-5.523,0-10,4.477-10,10s4.477,10,10,10  h75.246c3.254,0,5.902,2.648,5.902,5.902s-2.648,5.902-5.902,5.902h-22.884c-5.523,0-10,4.477-10,10  S439.562,380.249,445.084,380.249z M348.442,207.747v-4.515c0-7.238-1.921-14.371-5.557-20.629l-23.225-39.982  c-1.217-2.094-1.86-4.481-1.86-6.904v-26.572c0-7.756,4.3-14.526,10.641-18.053v26.974c0,5.523,4.477,10,10,10s10-4.477,10-10  V42.821c0-3.254,2.648-5.902,5.902-5.902s5.902,2.648,5.902,5.902v22.884c0,5.523,4.477,10,10,10s10-4.477,10-10V33.318  c0-3.041,2.474-5.515,5.515-5.515c3.041,0,5.515,2.474,5.515,5.515v31.223c0,5.523,4.477,10,10,10s10-4.477,10-10V45.73  c0-3.147,2.561-5.708,5.708-5.708s5.708,2.561,5.708,5.708v19.587c0,5.523,4.477,10,10,10s10-4.477,10-10V50.578  c0-2.613,2.126-4.739,4.739-4.739s4.739,2.126,4.739,4.739v84.005c0,13.885-1.86,27.715-5.528,41.106l-8.78,32.058H348.442z" data-original="#000000" class="active-path" style="fill:#000000"/><circle cx="154.79" cy="262.16" r="10" data-original="#000000" class="active-path" style="fill:#000000"/><circle cx="154.79" cy="228.81" r="10" data-original="#000000" class="active-path" style="fill:#000000"/><circle cx="262.78" cy="355.83" r="10" data-original="#000000" class="active-path" style="fill:#000000"/><circle cx="229.44" cy="355.83" r="10" data-original="#000000" class="active-path" style="fill:#000000"/><circle cx="357.19" cy="248.01" r="10" data-original="#000000" class="active-path" style="fill:#000000"/><circle cx="357.19" cy="281.35" r="10" data-original="#000000" class="active-path" style="fill:#000000"/><circle cx="250.77" cy="159.37" r="10" data-original="#000000" class="active-path" style="fill:#000000"/><circle cx="284.11" cy="159.37" r="10" data-original="#000000" class="active-path" style="fill:#000000"/></g> </svg>
