<svg xmlns="http://www.w3.org/2000/svg" xmlns:xlink="http://www.w3.org/1999/xlink" version="1.1" id="Layer_1" x="0px" y="0px" viewBox="0 0 512.002 512.002" style="enable-background:new 0 0 512.002 512.002;" xml:space="preserve" width="50" height="50" class=""><g><polygon style="fill:#FFFFFF" points="442.75,210.282 398.746,299.149 416.745,333.586 468.772,333.586 486.754,298.384 " data-original="#FFD41D" class="" data-old_color="#ffffff"/><rect x="416.745" y="333.582" style="fill:#8559DA" width="52.022" height="41.616" data-original="#FF991F" class="active-path" data-old_color="#8559da"/><path style="fill:#512DA8" d="M486.754,502.001h-88.007l-10.059-101.062c0-14.214,11.522-25.736,25.736-25.736h56.671  c14.214,0,25.736,11.522,25.736,25.736L486.754,502.001z" data-original="#F2427F" class="" data-old_color="#512da8"/><path style="fill:#8559DA" d="M385.259,10.001H58.302c-23.824,0-43.137,19.314-43.137,43.137v-0.233v421.633  c0,15.168,12.295,27.462,27.462,27.462h272.032c15.167,0,27.462-12.295,27.462-27.462V52.906v0.233  C342.121,28.912,360.881,9.332,385.259,10.001" data-original="#00C3FF" class="" data-old_color="#8559da"/><path style="fill:#512DA8" d="M390.185,10.001h-48.064v142.06h73.528c7.039,0,12.746-5.706,12.746-12.745V48.213  C428.396,27.109,411.289,10.001,390.185,10.001z" data-original="#0084FF" class="" data-old_color="#512da8"/><circle style="fill:#FFFFFF" cx="137.706" cy="137.656" r="69.062" data-original="#FFD41D" class="" data-old_color="#ffffff"/><path d="M438.397,137.309V54.036c0-29.003-23.171-53.233-51.651-54.015c-0.567-0.015-1.133-0.02-1.698-0.021H58.302  C29.14,0.001,5.389,23.616,5.166,52.728c-0.001,0.059-0.001,0.119-0.001,0.179V474.54c0,20.657,16.806,37.462,37.462,37.462h272.031  c20.657,0,37.462-16.806,37.462-37.462V162.061h61.522C427.292,162.061,438.397,150.957,438.397,137.309z M332.122,52.73  c-0.001,0.059-0.001,0.118-0.001,0.177V474.54c0,9.628-7.833,17.462-17.462,17.462H42.627c-9.628,0-17.462-7.833-17.462-17.462  V53.139c0-18.273,14.864-33.137,33.136-33.137h285.405C336.278,29.271,332.212,40.662,332.122,52.73z M352.122,53.139  c0-9.023,3.563-17.46,10.032-23.754c6.221-6.053,14.361-9.362,23.02-9.383h0.085c0.32,0,0.625,0.005,0.938,0.013  c17.755,0.487,32.199,15.75,32.199,34.022v83.273c0,2.62-2.132,4.752-4.752,4.752h-61.522V53.139z" data-original="#000000" class=""/><path d="M137.709,216.719c43.597,0,79.067-35.469,79.067-79.067s-35.469-79.067-79.067-79.067s-79.067,35.468-79.067,79.066  S94.111,216.719,137.709,216.719z M137.709,78.586c32.569,0,59.066,26.497,59.066,59.066s-26.497,59.066-59.066,59.066  s-59.066-26.497-59.066-59.066S105.14,78.586,137.709,78.586z" data-original="#000000" class=""/><path d="M137.709,171.554c5.523,0,10-4.478,10-10s-4.477-10-10-10c-7.665,0-13.9-6.235-13.9-13.9c0-7.665,6.236-13.9,13.9-13.9  c5.523,0,10-4.478,10-10s-4.477-10-10-10c-18.694,0-33.901,15.209-33.901,33.901S119.015,171.554,137.709,171.554z" data-original="#000000" class=""/><path d="M68.642,275.618h211.884c5.523,0,10-4.478,10-10s-4.477-10-10-10H68.642c-5.523,0-10,4.478-10,10  S63.119,275.618,68.642,275.618z" data-original="#000000" class=""/><path d="M68.642,318.021h211.884c5.523,0,10-4.478,10-10s-4.477-10-10-10H68.642c-5.523,0-10,4.478-10,10  S63.119,318.021,68.642,318.021z" data-original="#000000" class=""/><path d="M68.642,362.789h110.001c5.523,0,10-4.478,10-10s-4.477-10-10-10H68.642c-5.523,0-10,4.478-10,10  S63.119,362.789,68.642,362.789z" data-original="#000000" class=""/><path d="M478.78,366.042v-30.063l16.888-33.044c1.445-2.829,1.461-6.177,0.042-9.02l-44.003-88.102  c-1.693-3.39-5.157-5.531-8.946-5.531c-0.005,0-0.012,0-0.017,0c-3.795,0.007-7.26,2.161-8.944,5.563l-44.005,88.866  c-1.418,2.864-1.382,6.234,0.098,9.067l16.862,32.277v29.986c-16.027,3.524-28.059,17.829-28.059,34.897  c0,0.331,0.017,0.661,0.049,0.99l10.06,101.062c0.509,5.114,4.812,9.01,9.951,9.01h88.007c5.139,0,9.441-3.895,9.951-9.008  l10.075-101.062c0.033-0.33,0.049-0.661,0.049-0.992C506.838,383.871,494.805,369.566,478.78,366.042z M426.753,343.586h32.025  v21.616h-32.025V343.586z M432.757,253.014v41.777c0,5.522,4.477,10,10,10c5.523,0,10-4.478,10-10v-42.107l22.8,45.648  l-12.906,25.254h-39.848l-12.829-24.559L432.757,253.014z M477.709,492H407.81l-9.108-91.498c0.232-8.476,7.199-15.299,15.73-15.299  h2.323h52.026h2.322c8.53,0,15.498,6.823,15.73,15.298L477.709,492z" data-original="#000000" class=""/><path d="M166.893,438.355c-2.187,1.198-4.917,0.9-6.793-0.743c-7.12-6.241-17.072-8.11-25.973-4.88l-16.908,6.14  c-1.152,0.276-2.332-0.132-3.262-1.134l-2.219-2.394c-6.244-6.734-15.47-9.255-24.073-6.576l-19.746,6.142  c-5.273,1.641-8.219,7.245-6.579,12.519c1.64,5.274,7.242,8.218,12.519,6.579l19.747-6.142c1.215-0.381,2.48,0.014,3.466,1.077  l2.219,2.394c6.185,6.669,15.334,9.214,23.878,6.636c0.177-0.054,0.353-0.111,0.526-0.175l17.257-6.267  c2.045-0.741,4.328-0.313,5.963,1.121c4.832,4.234,10.963,6.421,17.139,6.421c4.27,0,8.562-1.046,12.457-3.183  c4.842-2.656,6.614-8.734,3.958-13.577S171.735,435.701,166.893,438.355z" data-original="#000000" class=""/><circle cx="200.208" cy="445.566" r="10" data-original="#000000" class=""/></g> </svg>
